<?xml version="1.0" encoding="UTF-8"?>
<svg xmlns="http://www.w3.org/2000/svg" viewBox="0 0 2870 1472" role="img" aria-label="EVmob logo">
  <title>EVmob</title>
  <desc>Logotipo EVmob - empresa de TVDE em Portugal</desc>
  <g>
    <path d="M0 0 C6 0.09 12 0.1 17.99 0.11 C29.32 0.16 40.64 0.27 51.97 0.41 C64.88 0.57 77.78 0.64 90.69 0.71 C117.21 0.86 143.73 1.11 170.25 1.42 C166.75 4.14 163.08 6.1 159.09 8.01 C158.38 8.35 157.68 8.69 156.96 9.04 C154.66 10.15 152.36 11.25 150.07 12.36 C148.47 13.13 146.87 13.9 145.27 14.67 C142.07 16.22 138.88 17.76 135.68 19.29 C131.93 21.1 128.18 22.9 124.43 24.72 C116.01 28.79 107.57 32.82 99.07 36.74 C82.62 44.32 66.45 52.31 50.43 60.75 C47.6 62.24 44.76 63.72 41.92 65.2 C35.73 68.43 29.56 71.68 23.46 75.09 C13.71 80.54 3.86 85.6 -6.25 90.37 C-18.44 96.13 -30.27 102.51 -42.09 108.98 C-51.87 114.35 -61.67 119.62 -71.75 124.42 C-72.54 124.8 -73.33 125.18 -74.15 125.57 C-130.32 152.18 -180.35 158.67 -241.71 154.27 C-262.2 152.81 -282.66 151.8 -303.18 151.17 C-304.48 151.13 -305.78 151.09 -307.12 151.05 C-310.83 150.93 -314.54 150.82 -318.24 150.72 C-319.32 150.69 -320.4 150.65 -321.5 150.62 C-361.59 149.56 -412.75 150.5 -444.75 178.42 C-445.23 178.8 -445.23 178.8 -447.65 180.71 C-450.96 183.47 -453.52 186.62 -456.12 190.04 C-456.6 190.66 -457.07 191.28 -457.56 191.91 C-461.73 197.34 -465.79 202.84 -469.75 208.42 C-470.43 209.38 -471.11 210.34 -471.82 211.32 C-481.83 225.55 -490.95 240.41 -499.75 255.42 C-500.18 256.16 -500.62 256.91 -501.07 257.67 C-515.74 282.69 -528.47 308.74 -541.39 334.67 C-542.28 336.46 -543.18 338.24 -544.07 340.03 C-546 343.89 -547.91 347.75 -549.79 351.64 C-549.94 351.96 -549.94 351.96 -550.72 353.57 C-551.52 355.22 -552.31 356.87 -553.1 358.52 C-557.72 366.65 -557.72 366.65 -562.06 368.29 C-562.34 368.32 -562.34 368.32 -563.75 368.42 C-562.82 293.21 -526.76 186.47 -472.63 133.35 C-470.72 131.64 -468.75 130.02 -466.75 128.42 C-466.06 127.82 -465.37 127.23 -464.66 126.61 C-415.73 85.18 -348.29 82.42 -287.5 78.6 C-225.53 74.71 -225.53 74.71 -207.09 72.37 C-206.5 72.3 -206.5 72.3 -203.52 71.92 C-163.62 66.45 -126.33 52.34 -92.27 30.99 C-89.58 29.31 -86.86 27.68 -84.14 26.05 C-83.17 25.47 -82.2 24.88 -81.2 24.28 C-79.38 23.19 -77.57 22.1 -75.75 21.02 C-75.32 20.76 -75.32 20.76 -73.12 19.43 C-72.65 19.15 -72.65 19.15 -70.26 17.77 C-67.58 16.11 -65.49 14.24 -63.26 12.01 C-45.83 -3.94 -22.01 -0.38 0 0 Z " fill="#3E3E45" transform="translate(569.745956659317,-0.41951513290405273)"/>
    <path d="M0 0 C15.59 -0.19 31.17 -0.33 46.76 -0.41 C54 -0.46 61.24 -0.51 68.47 -0.6 C74.79 -0.68 81.1 -0.73 87.41 -0.75 C90.75 -0.76 94.09 -0.79 97.43 -0.85 C101.17 -0.9 104.9 -0.91 108.64 -0.91 C109.19 -0.92 109.19 -0.92 111.95 -1 C120.69 -0.9 125.47 2.45 132 8 C133.23 8.92 134.47 9.83 135.72 10.73 C136.27 11.13 136.82 11.54 137.38 11.95 C153.26 23.63 169.29 35.05 185.5 46.27 C187.57 47.7 189.63 49.14 191.68 50.59 C194.77 52.76 197.87 54.89 201 57 C201.65 57.44 202.3 57.88 202.98 58.34 C240.72 83.72 283.57 95.03 327.72 103.56 C329.35 103.87 330.98 104.19 332.61 104.51 C353.39 108.58 374.28 111.75 395.23 114.83 C398.1 115.26 400.97 115.68 403.85 116.1 C440.08 121.45 476.38 126.11 512.77 130.28 C517.03 130.77 521.28 131.27 525.54 131.77 C544.97 134.05 564.4 136.08 583.89 137.82 C585.99 138 588.09 138.19 590.19 138.38 C614.14 140.54 638.1 142.51 662.08 144.26 C667.46 144.65 672.85 145.07 678.23 145.51 C697.19 147.07 716.14 148.34 735.14 149.25 C736.17 149.3 737.19 149.35 738.25 149.4 C747.73 149.85 757.21 150.3 766.69 150.73 C771.97 150.96 777.24 151.22 782.51 151.48 C784.47 151.57 786.44 151.66 788.4 151.74 C818.43 153.01 848.35 160.38 870.2 182.24 C873 185 873 185 875.97 187.38 C921.11 224.41 928.79 303.06 935 357 C935.1 357.85 935.21 358.71 935.32 359.58 C936.14 366.84 936.22 374.08 936.25 381.38 C936.26 382 936.26 382 936.31 385.18 C936.32 386.39 936.32 387.59 936.33 388.84 C936.34 389.92 936.35 391.01 936.36 392.13 C935.96 395.35 935.29 396.73 933 399 C930.31 399.25 930.31 399.25 928 399 C925.68 392.77 924.33 386.82 923.54 380.23 C923.48 379.78 923.48 379.78 923.17 377.46 C922.79 374.56 922.43 371.66 922.06 368.75 C919.4 347.74 915.93 327.19 910.31 306.75 C910.1 305.96 909.88 305.17 909.66 304.36 C905.82 290.3 901.45 276.52 896 263 C895.65 262.12 895.29 261.24 894.93 260.34 C886.95 240.89 876.69 223.13 862 208 C861.1 207.07 860.19 206.13 859.26 205.17 C847.55 193.86 833.35 187.01 818 182 C817.26 181.74 816.52 181.48 815.76 181.21 C804.9 177.93 793.67 178.54 782.44 178.52 C780.11 178.51 777.78 178.49 775.45 178.48 C770.52 178.45 765.59 178.42 760.67 178.4 C752.94 178.38 745.21 178.33 737.49 178.27 C727.4 178.2 717.32 178.14 707.23 178.08 C612.08 177.52 516.98 172.84 328 154 C327.55 153.93 327.55 153.93 325.29 153.59 C264.21 144.35 209.51 128.56 157.14 95.26 C140.91 84.94 124.55 74.84 108.1 64.88 C104.77 62.86 101.44 60.83 98.11 58.8 C84.54 50.54 70.93 42.34 57.23 34.31 C55.27 33.16 53.32 32.01 51.36 30.86 C46.98 28.28 42.58 25.76 38.11 23.35 C31.65 19.84 25.29 16.16 18.94 12.45 C16.98 11.3 15.01 10.16 13.04 9.01 C11.77 8.28 10.51 7.54 9.25 6.8 C8.12 6.14 6.99 5.48 5.83 4.81 C3.49 3.31 1.88 1.97 0 0 Z " fill="#3E3E45" transform="translate(1870,1)"/>
    <path d="M0 0 C22.13 -0.07 44.26 -0.12 66.39 -0.16 C76.67 -0.17 86.94 -0.19 97.22 -0.23 C106.17 -0.26 115.12 -0.28 124.08 -0.28 C128.82 -0.29 133.56 -0.3 138.31 -0.32 C142.77 -0.34 147.23 -0.34 151.69 -0.34 C153.33 -0.34 154.97 -0.35 156.61 -0.36 C158.84 -0.37 161.07 -0.37 163.31 -0.36 C164.56 -0.36 165.81 -0.37 167.1 -0.37 C167.58 -0.31 167.58 -0.31 170 0 C172.4 3.59 172.48 5.8 172.9 10.08 C172.97 10.8 173.04 11.52 173.12 12.26 C173.35 14.66 173.58 17.06 173.8 19.46 C173.97 21.16 174.14 22.85 174.31 24.55 C174.75 29.06 175.18 33.57 175.61 38.08 C176.04 42.51 176.47 46.94 176.9 51.37 C176.99 52.24 177.07 53.1 177.16 54 C177.33 55.75 177.5 57.5 177.67 59.26 C177.93 61.91 178.19 64.56 178.45 67.22 C179.6 79.07 180.82 90.93 182.08 102.77 C183.65 117.54 185.12 132.31 186.52 147.09 C188.61 169.1 190.82 191.1 193.17 213.09 C194.93 229.6 196.62 246.11 198.27 262.63 C198.37 263.63 198.47 264.62 198.57 265.64 C199.57 275.65 200.57 285.65 201.56 295.66 C202.02 300.33 202.48 305.01 202.95 309.68 C202.99 310.13 202.99 310.13 203.22 312.41 C204.3 323.22 205.43 334.02 206.66 344.81 C207.86 355.36 208.81 365.91 209.56 376.5 C209.76 379.22 209.96 381.94 210.17 384.66 C210.29 386.4 210.42 388.14 210.55 389.88 C210.61 390.69 210.67 391.5 210.73 392.33 C210.86 394.22 210.94 396.11 211 398 C210 399 210 399 208.13 399.14 C201.4 399.12 194.79 398.61 188.1 397.9 C186.97 397.78 185.84 397.66 184.67 397.54 C180.99 397.16 177.31 396.77 173.62 396.38 C172.99 396.31 172.99 396.31 169.79 395.97 C147.01 393.54 124.33 390.69 101.67 387.39 C98.89 386.98 96.1 386.58 93.32 386.19 C88.63 385.51 83.93 384.83 79.24 384.14 C77.47 383.88 75.71 383.63 73.95 383.37 C71.53 383.02 69.11 382.66 66.69 382.3 C65.98 382.2 65.27 382.09 64.54 381.99 C60.78 381.41 57.47 380.58 54 379 C54.02 377.84 54.04 376.68 54.07 375.49 C54.06 371.34 53.6 367.33 52.93 363.24 C52.82 362.5 52.71 361.77 52.59 361.01 C52.21 358.59 51.82 356.16 51.44 353.74 C51.17 352.02 50.9 350.29 50.63 348.57 C50.06 344.91 49.48 341.24 48.9 337.58 C47.54 328.96 46.19 320.33 44.85 311.7 C44.4 308.83 43.95 305.96 43.5 303.08 C41.13 287.94 38.85 272.79 36.62 257.62 C36 253.39 35.38 249.16 34.76 244.93 C34.61 243.93 34.47 242.93 34.32 241.9 C32.88 232.11 31.38 222.33 29.88 212.55 C27.34 196.02 24.91 179.49 22.56 162.94 C20.14 145.86 17.65 128.8 15.06 111.75 C14.9 110.66 14.73 109.57 14.56 108.44 C13.72 102.89 12.88 97.35 12.03 91.8 C9.29 73.75 6.56 55.71 3.85 37.66 C3.32 34.12 2.78 30.58 2.25 27.04 C1.64 23.01 1.04 18.97 0.44 14.94 C0.27 13.84 0.1 12.74 -0.07 11.61 C-0.22 10.63 -0.36 9.66 -0.5 8.65 C-0.63 7.84 -0.75 7.02 -0.87 6.18 C-1.01 3.89 -0.6 2.2 0 0 Z " fill="#3E3E45" transform="translate(808,257)"/>
    <path d="M0 0 C1.09 -0 2.17 -0.01 3.29 -0.01 C3.89 -0.01 3.89 -0.01 6.93 -0 C8.19 -0 9.45 -0.01 10.75 -0.01 C14.22 -0.01 17.7 -0.01 21.17 -0.01 C24.84 -0 28.51 -0.01 32.18 -0.01 C38.38 -0.01 44.57 -0.01 50.77 -0 C57.07 0 63.36 0 69.66 -0 C137.07 -0.05 137.07 -0.05 166 1.13 C165.42 10.76 164.44 20.26 163.14 29.82 C162.96 31.21 162.77 32.59 162.59 33.97 C162.1 37.64 161.61 41.31 161.12 44.98 C160.6 48.82 160.09 52.67 159.57 56.51 C157.02 75.64 154.43 94.76 151.81 113.87 C150.63 122.45 149.47 131.03 148.32 139.6 C148.18 140.68 148.03 141.75 147.89 142.86 C147.81 143.4 147.81 143.4 147.45 146.14 C144.53 167.89 141.56 189.63 138.48 211.36 C136.8 223.26 135.18 235.18 133.6 247.1 C131.65 261.77 129.65 276.43 127.64 291.1 C127.21 294.25 126.78 297.4 126.35 300.55 C125.21 308.95 124.05 317.36 122.88 325.75 C122.39 329.24 121.92 332.72 121.45 336.21 C120.96 339.94 120.45 343.67 119.93 347.4 C119.8 348.48 119.66 349.56 119.52 350.67 C118.23 359.82 114.87 366.03 109.75 373.63 C106.38 378.75 103.37 383.96 100.62 389.44 C100.3 390.07 99.98 390.71 99.65 391.36 C97.3 396.14 95.58 401.04 94 406.13 C57.14 406.64 20.29 405.04 -16.5 402.87 C-18.58 402.75 -20.65 402.63 -22.72 402.52 C-25.58 402.36 -28.44 402.19 -31.29 402.01 C-32.14 401.96 -32.98 401.92 -33.85 401.87 C-39.44 401.49 -39.44 401.49 -41.75 400.01 C-43.68 397.11 -43.12 394.88 -42.81 391.46 C-42.78 391.11 -42.78 391.11 -42.63 389.37 C-42.44 387.04 -42.21 384.71 -41.99 382.38 C-41.84 380.69 -41.7 379 -41.55 377.32 C-41.23 373.6 -40.89 369.88 -40.55 366.16 C-39.98 359.91 -39.44 353.65 -38.9 347.39 C-37.8 334.52 -36.66 321.65 -35.52 308.78 C-35.19 305.02 -34.85 301.26 -34.52 297.5 C-31.8 266.78 -29.01 236.09 -25.91 205.41 C-24.35 189.94 -22.98 174.46 -21.71 158.96 C-20.06 138.97 -17.97 119.03 -15.84 99.09 C-15.04 91.5 -14.28 83.91 -13.57 76.31 C-12.25 62.52 -10.88 48.73 -9.5 34.94 C-9.15 31.51 -8.81 28.07 -8.47 24.64 C-8.09 20.77 -7.7 16.91 -7.31 13.04 C-7.19 11.85 -7.07 10.67 -6.95 9.44 C-6.84 8.36 -6.73 7.28 -6.62 6.16 C-6.52 5.21 -6.43 4.26 -6.33 3.28 C-5.71 -0.78 -3.68 0 0 0 Z " fill="#3E3E45" transform="translate(1068.0031280517578,256.8730163574219)"/>
    <path d="M0 0 C1.06 -0 2.13 -0 3.23 -0 C6.72 -0 10.22 0 13.71 0.01 C16.25 0.01 18.78 0.01 21.32 0.01 C26.74 0.01 32.16 0.01 37.58 0.01 C45.41 0.02 53.25 0.03 61.08 0.03 C73.8 0.03 86.52 0.04 99.24 0.04 C111.58 0.05 123.92 0.06 136.27 0.07 C137.03 0.07 137.79 0.07 138.58 0.07 C142.41 0.07 146.23 0.07 150.06 0.07 C181.73 0.08 213.41 0.1 245.08 0.12 C245.1 16.27 245.12 32.42 245.13 48.57 C245.14 56.07 245.14 63.57 245.15 71.07 C245.16 77.6 245.17 84.13 245.17 90.67 C245.17 94.13 245.18 97.59 245.18 101.05 C245.19 104.91 245.19 108.77 245.19 112.62 C245.2 113.78 245.2 114.94 245.2 116.13 C245.2 117.17 245.2 118.22 245.2 119.29 C245.2 119.75 245.2 119.75 245.2 122.06 C245.08 124.12 245.08 124.12 244.08 125.12 C242.66 125.23 241.24 125.27 239.82 125.28 C238.9 125.29 237.99 125.3 237.04 125.31 C236.03 125.31 235.01 125.32 233.96 125.33 C233.42 125.33 233.42 125.33 230.68 125.36 C227.17 125.39 223.65 125.41 220.14 125.44 C217.97 125.46 215.81 125.47 213.65 125.49 C205.6 125.56 197.56 125.62 189.52 125.68 C171.55 125.83 153.59 125.97 135.08 126.12 C135.08 165.06 135.08 204 135.08 244.12 C169.07 244.45 203.06 244.78 238.08 245.12 C238.02 286.87 238.02 286.87 237.99 299.86 C237.96 319.97 238.09 340.03 239.08 360.12 C240.4 360.78 241.72 361.44 243.08 362.12 C232.98 364.09 224.08 361.53 214.27 359.18 C212.35 358.74 210.44 358.29 208.53 357.84 C168.76 348.48 129.15 338.04 90.17 325.78 C88.13 325.14 86.09 324.5 84.05 323.87 C49.67 313.14 15.74 300.92 -17.92 288.12 C-18.94 287.74 -19.96 287.36 -21 286.97 C-21.9 286.63 -22.79 286.29 -23.71 285.94 C-24.46 285.66 -25.22 285.37 -25.99 285.08 C-28.09 284.03 -29.31 282.8 -30.92 281.12 C-32.99 280.09 -35.1 279.14 -37.23 278.25 C-37.84 277.99 -38.45 277.73 -39.08 277.46 C-44.68 275.13 -50.39 273.18 -56.16 271.3 C-58.92 270.12 -58.92 270.12 -60.92 267.12 C-56.26 266.66 -53.09 268.27 -49.11 270.43 C-36.27 277.12 -36.27 277.12 -30.92 277.12 C-30.59 186.04 -30.26 94.96 -29.92 1.12 C-9.25 -0.03 -9.25 -0.03 0 0 Z " fill="#3E3E45" transform="translate(539.9212951660156,256.87974548339844)"/>
    <path d="M0 0 C3.72 0.01 7.44 0.01 11.17 0.01 C18.17 0.01 25.18 0.02 32.19 0.03 C40.19 0.04 48.18 0.05 56.18 0.05 C72.59 0.06 89 0.08 105.41 0.1 C106.75 2.79 106.53 4.87 106.53 7.88 C106.53 8.5 106.53 8.5 106.53 11.62 C106.53 12.99 106.52 14.36 106.52 15.73 C106.52 17.17 106.52 18.61 106.52 20.05 C106.52 23.96 106.52 27.87 106.51 31.79 C106.5 35.87 106.5 39.96 106.5 44.05 C106.5 51.79 106.49 59.53 106.48 67.27 C106.47 76.08 106.46 84.9 106.46 93.71 C106.45 111.84 106.43 129.97 106.41 148.1 C109.26 145.28 111.96 142.48 114.47 139.35 C122.57 130.06 133.55 123.69 144.41 118.1 C145.07 117.76 145.74 117.41 146.43 117.06 C178.47 100.88 216.57 100.25 250.41 111.1 C272.14 118.35 291.09 132.26 301.66 152.85 C310.3 170.52 311.5 189.35 312.47 208.66 C312.55 210.13 312.63 211.6 312.71 213.06 C312.91 216.87 313.1 220.67 313.28 224.47 C313.36 226.2 313.45 227.93 313.54 229.66 C314.26 244.14 314.56 258.59 314.55 273.09 C314.56 275.29 314.56 277.48 314.56 279.68 C314.57 285.57 314.57 291.47 314.57 297.37 C314.58 301.08 314.58 304.8 314.58 308.51 C314.59 320.9 314.59 333.28 314.59 345.66 C314.59 346 314.59 346 314.59 347.67 C314.59 348.34 314.59 349 314.59 349.69 C314.59 361.03 314.6 372.37 314.62 383.71 C314.63 394.14 314.64 404.57 314.64 415 C314.64 421.17 314.64 427.35 314.65 433.53 C314.69 458.77 314.47 483.98 313.52 509.21 C313.48 510.28 313.44 511.34 313.4 512.43 C311.87 553.23 306.37 585.91 275.41 614.91 C264.46 624.47 251.7 630.7 237.85 634.85 C237.19 635.05 236.53 635.25 235.85 635.45 C224.85 638.58 214.06 639.46 202.66 639.41 C202.33 639.41 202.33 639.41 200.66 639.41 C190.54 639.36 181.17 638.85 171.41 636.1 C170.17 635.76 168.93 635.42 167.65 635.07 C143.82 627.83 124.23 612.03 108.41 593.1 C107.75 593.43 107.09 593.76 106.41 594.1 C105.59 596.76 104.89 599.37 104.24 602.07 C104.14 602.47 104.14 602.47 103.65 604.49 C103.02 607.05 102.4 609.61 101.78 612.16 C101.36 613.89 100.93 615.62 100.51 617.35 C99.47 621.6 98.44 625.85 97.41 630.1 C68.83 631.48 40.22 631.22 11.62 631.17 C4.71 631.16 -2.2 631.16 -9.11 631.15 C-23.27 631.14 -37.43 631.12 -51.59 631.1 C-51.76 570.38 -51.93 509.66 -52.08 448.95 C-52.09 445.49 -52.1 442.03 -52.11 438.57 C-52.64 234.85 -52.64 234.85 -52.65 91.1 C-52.65 89.9 -52.65 88.69 -52.65 87.45 C-52.64 58.67 -52.62 29.88 -52.59 1.1 C-35.06 0.14 -17.56 -0.04 0 0 Z M114.53 200.54 C104.08 215.31 106.08 238.75 105.99 255.89 C105.97 258.27 105.95 260.65 105.93 263.02 C105.88 269.44 105.84 275.86 105.81 282.28 C105.78 286.3 105.76 290.33 105.73 294.36 C105.6 313.54 105.5 332.73 105.42 351.92 C105.41 354.1 105.4 356.28 105.39 358.45 C105.31 377.51 105.25 396.57 105.23 415.63 C105.22 420.28 105.21 424.92 105.2 429.57 C104.95 524.9 104.95 524.9 115.9 538.61 C120.72 543.38 125.65 544.25 132.22 544.41 C137.97 544.34 140.91 543.68 145.41 540.1 C160.37 524.28 156.56 493.84 156.54 473.64 C156.54 471.65 156.54 469.65 156.54 467.66 C156.55 462.28 156.55 456.9 156.54 451.52 C156.54 445.81 156.54 440.11 156.54 434.41 C156.55 424.8 156.54 415.19 156.54 405.58 C156.53 394.62 156.53 383.66 156.54 372.71 C156.54 363.19 156.54 353.68 156.54 344.16 C156.54 338.53 156.54 332.9 156.54 327.26 C156.56 304.18 156.47 281.11 156.14 258.03 C156.1 255.76 156.08 253.48 156.05 251.2 C155.68 214.87 155.68 214.87 148.41 203.1 C148.23 202.81 148.23 202.81 147.32 201.34 C144.17 196.97 140.5 195.25 135.41 194.1 C127.49 193.21 120.64 195.36 114.53 200.54 Z " fill="#3E3E45" transform="translate(2333.592488050461,256.8986060619354)"/>
    <path d="M0 0 C0.76 0.68 1.52 1.36 2.3 2.05 C2.82 2.5 3.34 2.95 3.88 3.41 C12.53 10.86 19.23 18.38 25.3 28.05 C26.62 30.06 27.96 32.06 29.3 34.05 C33.17 30.35 36.44 26.43 39.68 22.18 C43.6 17.13 47.49 12.3 52.3 8.05 C52.7 7.7 52.7 7.7 54.71 5.92 C80.49 -15.99 111.99 -24.2 145.4 -21.67 C167.46 -19.38 186.4 -11.17 203.3 3.05 C204.2 3.77 205.09 4.49 206.01 5.23 C229.54 25 235.29 56.6 237.93 85.63 C239.69 108.05 239.42 130.52 239.33 153 C239.32 155.76 239.31 158.52 239.3 161.28 C239.3 161.62 239.3 161.62 239.3 163.33 C239.26 176.08 239.45 188.81 239.8 201.55 C239.82 202.42 239.85 203.3 239.87 204.19 C240 208.81 240.15 213.43 240.3 218.05 C241.29 218.38 242.28 218.71 243.3 219.05 C243.3 219.71 243.3 220.37 243.3 221.05 C240.01 221.79 236.97 222.18 233.6 222.18 C233.15 222.18 233.15 222.18 230.83 222.19 C229.84 222.19 228.85 222.19 227.83 222.18 C226.77 222.19 225.72 222.19 224.63 222.19 C221.14 222.19 217.66 222.19 214.17 222.19 C211.74 222.19 209.31 222.19 206.88 222.19 C201.78 222.19 196.68 222.19 191.59 222.19 C185.08 222.18 178.56 222.18 172.05 222.19 C167.03 222.19 162.01 222.19 156.98 222.19 C154.59 222.19 152.19 222.19 149.79 222.19 C146.42 222.19 143.05 222.19 139.68 222.18 C138.7 222.19 137.73 222.19 136.72 222.19 C117.92 222.13 117.92 222.13 113.3 219.05 C113.11 215.43 113.11 215.43 113.3 212.05 C113.63 212.05 113.96 212.05 114.3 212.05 C114.96 214.03 115.62 216.01 116.3 218.05 C119.6 218.05 122.9 218.05 126.3 218.05 C125.75 211.72 125.2 205.38 124.65 199.05 C124.46 196.89 124.27 194.74 124.09 192.58 C123.82 189.48 123.55 186.39 123.27 183.29 C123.19 182.33 123.11 181.36 123.02 180.37 C122.94 179.47 122.86 178.57 122.78 177.64 C122.75 177.24 122.75 177.24 122.57 175.24 C122.3 173.05 122.3 173.05 121.3 169.05 C117.67 169.05 114.04 169.05 110.3 169.05 C109.97 172.35 109.64 175.65 109.3 179.05 C108.97 179.05 108.64 179.05 108.3 179.05 C108.25 178.66 108.25 178.66 107.97 176.64 C107.81 175.58 107.65 174.52 107.49 173.43 C107.41 172.91 107.41 172.91 107.03 170.27 C106.2 166.61 105.5 164.12 103.3 161.05 C100.51 159.83 97.67 159.35 94.68 158.87 C91.83 158.37 89.11 157.78 86.3 157.05 C85.26 153.93 85.2 151.83 85.24 148.56 C85.24 148.01 85.24 148.01 85.26 145.21 C85.28 144.02 85.29 142.84 85.3 141.62 C85.53 85.64 85.53 85.64 75.82 74.32 C70.32 69.46 64.82 69.71 57.82 69.78 C51.51 70.27 47.48 72.58 43.05 76.99 C29.86 94.12 34.02 124.83 34.3 145.05 C35.37 145.18 36.44 145.3 37.55 145.42 C38.94 145.59 40.34 145.76 41.74 145.93 C42.45 146.01 43.15 146.09 43.88 146.17 C45.7 146.39 47.5 146.72 49.3 147.05 C49.63 147.71 49.96 148.37 50.3 149.05 C49.06 148.89 47.83 148.72 46.55 148.55 C43.01 148.15 39.63 148.06 36.07 148.16 C28.68 148.19 21.49 147.17 14.19 146.15 C-20.63 141.3 -55.59 138.5 -90.7 137.05 C-91.05 137.04 -91.05 137.04 -92.84 136.97 C-101.13 136.63 -109.41 136.32 -117.7 136.05 C-118.6 132.95 -118.85 130.12 -118.91 126.9 C-118.94 125.89 -118.96 124.87 -118.99 123.83 C-119.02 122.75 -119.05 121.67 -119.07 120.55 C-119.35 112.32 -119.85 104.21 -121.07 96.05 C-121.13 95.66 -121.13 95.66 -121.42 93.69 C-122.61 86.36 -124.13 78.31 -129.7 73.05 C-135.93 69.21 -142.54 69.18 -149.7 70.05 C-156.14 71.88 -161.1 75.17 -164.45 81.03 C-171.76 98.76 -170.51 119.23 -170.7 138.05 C-176.03 139.48 -181.25 140.5 -186.74 141.13 C-188.29 141.32 -189.84 141.51 -191.39 141.7 C-192.2 141.8 -193 141.9 -193.83 142 C-230.77 146.53 -266.04 155.08 -300.89 168.18 C-301.31 168.34 -301.31 168.34 -303.42 169.13 C-308.69 171.14 -313.57 173.5 -318.47 176.29 C-320.7 177.05 -320.7 177.05 -322.84 176.1 C-323.45 175.76 -324.07 175.41 -324.7 175.05 C-324.67 174.19 -324.64 173.32 -324.61 172.42 C-323.86 150.22 -323.57 128.06 -323.63 105.85 C-323.64 101.68 -323.64 97.52 -323.65 93.36 C-323.66 82.88 -323.68 72.4 -323.7 61.93 C-323.72 50.49 -323.74 39.06 -323.75 27.62 C-323.76 22.69 -323.77 17.75 -323.78 12.82 C-323.79 9.78 -323.79 6.74 -323.79 3.7 C-323.8 2.29 -323.8 0.88 -323.8 -0.54 C-323.81 -2.45 -323.81 -4.37 -323.81 -6.29 C-323.81 -7.36 -323.82 -8.44 -323.82 -9.55 C-323.7 -11.95 -323.7 -11.95 -322.7 -12.95 C-320.71 -13.04 -318.72 -13.07 -316.73 -13.07 C-316.08 -13.07 -316.08 -13.07 -312.8 -13.07 C-311.35 -13.07 -309.9 -13.06 -308.45 -13.06 C-306.93 -13.06 -305.41 -13.06 -303.9 -13.06 C-299.76 -13.06 -295.63 -13.05 -291.5 -13.05 C-287.19 -13.04 -282.87 -13.04 -278.56 -13.04 C-270.39 -13.04 -262.21 -13.03 -254.04 -13.02 C-244.73 -13.01 -235.43 -13 -226.13 -13 C-206.99 -12.99 -187.84 -12.97 -168.7 -12.95 C-168.69 -10.87 -168.69 -8.79 -168.69 -6.71 C-168.69 -6.13 -168.69 -6.13 -168.68 -3.2 C-168.7 0.52 -168.88 4.18 -169.14 7.89 C-169.23 9.2 -169.32 10.51 -169.41 11.86 C-169.51 13.2 -169.6 14.53 -169.7 15.87 C-169.8 17.25 -169.89 18.64 -169.99 20.03 C-170.22 23.37 -170.46 26.71 -170.7 30.05 C-167.7 27.09 -164.94 24.2 -162.45 20.8 C-144.49 -2.59 -116.99 -16.94 -88.14 -21.2 C-57.78 -24.77 -24.13 -20.34 0 0 Z " fill="#3E3E45" transform="translate(1580.69921875,382.9453125)"/>
    <path d="M0 0 C0.9 0 1.81 0.01 2.74 0.01 C53.73 0.24 103.23 11.14 141.58 46.92 C145.7 51.1 149.32 55.59 152.88 60.25 C153.28 60.78 153.69 61.3 154.11 61.85 C160.95 70.76 166.28 80.01 170.88 90.25 C171.11 90.77 171.11 90.77 172.3 93.41 C178.64 108.63 181.16 124.8 183.12 141.06 C183.21 141.75 183.29 142.43 183.38 143.14 C187.01 173.63 187.04 204.48 187.04 235.15 C187.04 237.42 187.05 239.68 187.05 241.95 C187.06 249.94 187.06 257.93 187.06 265.91 C187.06 272.41 187.07 278.91 187.08 285.41 C187.21 348.09 187.21 348.09 185.97 371.86 C185.95 372.25 185.95 372.25 185.85 374.2 C183.8 412.01 175 450.8 149.88 480.25 C149.38 480.83 148.89 481.4 148.39 482 C137 495.16 123.83 505.42 108.88 514.25 C107.77 514.92 106.67 515.58 105.53 516.27 C84.54 528.18 58.53 532.69 34.88 535.25 C34.5 535.29 34.5 535.29 32.62 535.51 C26.89 536.13 21.24 536.41 15.48 536.42 C14.63 536.42 13.77 536.43 12.88 536.43 C10.13 536.44 7.38 536.44 4.62 536.44 C3.68 536.44 2.74 536.44 1.77 536.43 C-39.5 536.35 -82.66 530.72 -117.12 506.25 C-117.96 505.66 -118.79 505.07 -119.65 504.46 C-129.53 497 -139.91 487.37 -147.12 477.25 C-147.12 476.59 -147.12 475.93 -147.12 475.25 C-145.93 474.75 -144.73 474.26 -143.5 473.75 C-137.77 470.89 -134.84 466.36 -131.81 460.88 C-129.62 452.52 -129.51 444.83 -133.21 436.93 C-137.03 430.4 -142.36 426.51 -149.12 423.25 C-151.51 422.65 -153.66 422.46 -156.12 422.25 C-156.58 421.79 -157.03 421.33 -157.5 420.86 C-159.55 418.83 -161.49 418.17 -164.19 417.19 C-168.92 415.46 -168.92 415.46 -171.12 413.25 C-171.69 411 -171.69 411 -172.12 408.18 C-172.21 407.65 -172.21 407.65 -172.62 405 C-172.7 404.44 -172.7 404.44 -173.12 401.56 C-173.3 400.38 -173.47 399.2 -173.65 397.99 C-176.17 380.47 -177.28 363.05 -177.81 345.38 C-177.84 344.6 -177.86 343.83 -177.89 343.03 C-178.15 334.65 -178.23 326.26 -177.94 317.88 C-177.93 317.17 -177.92 316.47 -177.91 315.74 C-177.74 312.11 -177.35 310.49 -174.87 307.77 C-172.37 306.06 -169.81 304.67 -167.12 303.25 C-161.25 298.15 -157.72 289.71 -156.89 282.06 C-156.6 273.01 -159.29 264.29 -165.12 257.25 C-168.12 254.81 -168.12 254.81 -171.12 253.25 C-173.5 253.5 -173.5 253.5 -175.12 254.25 C-175.27 253.61 -175.41 252.97 -175.56 252.31 C-176.12 250.25 -176.12 250.25 -177.12 249.25 C-177.23 247.33 -177.27 245.41 -177.29 243.48 C-177.29 242.86 -177.29 242.86 -177.31 239.71 C-177.32 238.34 -177.32 236.96 -177.33 235.58 C-177.34 234.16 -177.34 232.73 -177.35 231.31 C-177.37 226.71 -177.37 222.1 -177.38 217.5 C-177.38 217.11 -177.38 217.11 -177.38 215.14 C-177.39 156.08 -175.49 91.95 -132.75 46.44 C-106.68 21.05 -71.54 7.67 -36.12 2.25 C-34.97 2.07 -33.82 1.89 -32.63 1.71 C-21.73 0.17 -11 -0.07 0 0 Z M-12.2 97.53 C-22.69 112.37 -20.41 136.09 -20.37 153.36 C-20.37 155.75 -20.37 158.15 -20.37 160.55 C-20.38 166.35 -20.37 172.15 -20.36 177.95 C-20.35 184.74 -20.35 191.53 -20.35 198.33 C-20.35 210.47 -20.35 222.62 -20.33 234.77 C-20.32 246.48 -20.31 258.19 -20.31 269.91 C-20.31 270.63 -20.31 271.35 -20.31 272.09 C-20.31 272.81 -20.31 273.53 -20.31 274.27 C-20.31 287.69 -20.31 301.11 -20.3 314.54 C-20.29 319.24 -20.29 323.94 -20.29 328.64 C-20.27 426.87 -20.27 426.87 -8.69 438.75 C-2.08 442.62 4.35 443.03 11.88 442.25 C17.2 440.79 20.89 438.01 23.85 433.37 C28.21 424.38 29 414.16 29.08 404.32 C29.09 403.57 29.1 402.81 29.11 402.04 C29.14 399.56 29.17 397.08 29.19 394.6 C29.21 392.82 29.23 391.04 29.25 389.27 C29.3 385.52 29.34 381.77 29.38 378.02 C29.43 373.38 29.48 368.74 29.54 364.1 C30.14 314.19 29.87 264.29 29.59 214.38 C29.53 204.67 29.48 194.95 29.44 185.24 C29.41 178.28 29.37 171.33 29.33 164.37 C29.31 160.26 29.29 156.15 29.27 152.04 C29.26 148.21 29.24 144.38 29.21 140.54 C29.19 138.5 29.19 136.45 29.19 134.41 C28.94 106.59 28.94 106.59 20.5 96.38 C11.01 88.69 -3.66 88.16 -12.2 97.53 Z " fill="#3E3E45" transform="translate(2045.125,360.75)"/>
    <path d="M0 0 C9 1.12 9 1.12 12.72 1.85 C13.55 2.01 14.38 2.17 15.23 2.33 C15.67 2.42 15.67 2.42 17.86 2.85 C18.78 3.02 19.69 3.2 20.63 3.38 C24.51 4.13 28.39 4.88 32.27 5.64 C35.11 6.19 37.96 6.74 40.8 7.29 C41.24 7.37 41.24 7.37 43.46 7.81 C43.87 7.88 43.87 7.88 45.93 8.28 C46.65 8.42 47.36 8.56 48.1 8.7 C50 9 50 9 53 9 C54.84 9.4 56.67 9.84 58.49 10.29 C67.3 12.37 76.2 13.87 85.12 15.38 C86.01 15.53 86.9 15.68 87.82 15.83 C104.6 18.68 121.42 21.16 138.29 23.48 C143.55 24.22 148.81 24.97 154.06 25.75 C154.87 25.87 155.67 25.98 156.5 26.1 C161.77 26.88 161.77 26.88 164 28 C164.33 55.72 164.66 83.44 165 112 C169.33 112.03 169.33 112.03 191.21 112.18 C197.37 112.23 203.53 112.28 209.69 112.32 C217.68 112.38 225.67 112.44 233.66 112.5 C239.98 112.54 246.3 112.59 252.62 112.64 C255.97 112.66 259.32 112.69 262.67 112.71 C266.4 112.73 270.14 112.76 273.87 112.79 C274.99 112.8 276.11 112.81 277.26 112.81 C278.27 112.82 279.28 112.83 280.32 112.84 C280.77 112.85 280.77 112.85 283 112.86 C285 113 285 113 286 114 C286.1 115.63 286.12 117.27 286.12 118.9 C286.12 119.43 286.12 119.43 286.12 122.12 C286.12 123.3 286.12 124.47 286.11 125.68 C286.11 126.91 286.11 128.14 286.11 129.4 C286.11 132.78 286.11 136.16 286.1 139.54 C286.1 143.07 286.09 146.6 286.09 150.13 C286.09 156.82 286.08 163.5 286.07 170.19 C286.06 177.8 286.06 185.41 286.05 193.02 C286.04 208.68 286.02 224.34 286 240 C259.78 241.38 233.54 241.15 207.29 241.13 C201.37 241.13 195.44 241.13 189.52 241.14 C177.09 241.14 164.66 241.13 152.22 241.13 C141.6 241.12 130.98 241.13 120.36 241.13 C107.95 241.14 95.53 241.14 83.12 241.13 C76.58 241.13 70.04 241.13 63.49 241.14 C57.35 241.14 51.2 241.14 45.06 241.13 C42.82 241.13 40.58 241.13 38.34 241.13 C35.26 241.14 32.17 241.13 29.09 241.13 C28.23 241.13 27.36 241.13 26.47 241.13 C17.6 241.11 8.9 240.49 0 240 C0 160.8 0 81.6 0 0 Z " fill="#3E3E45" transform="translate(510,647)"/>
    <path d="M0 0 C33.99 0 67.98 0 103 0 C103.31 48.88 103.31 48.88 103.39 64.32 C103.44 70.54 103.44 70.54 103.47 73.44 C103.48 75.48 103.49 77.51 103.5 79.55 C103.51 82.62 103.54 85.7 103.57 88.78 C103.57 89.69 103.56 90.6 103.56 91.54 C103.6 94.04 103.6 94.04 104 98 C104.49 98.33 104.49 98.33 107 100 C102.45 101.14 97.98 101.14 93.32 101.13 C92.45 101.13 91.59 101.13 90.7 101.13 C87.84 101.14 84.99 101.14 82.13 101.13 C80.14 101.13 78.14 101.13 76.14 101.14 C71.95 101.14 67.76 101.14 63.57 101.13 C58.23 101.12 52.9 101.13 47.57 101.13 C43.44 101.14 39.31 101.14 35.18 101.13 C33.21 101.13 31.25 101.13 29.29 101.14 C18.14 101.15 7.11 100.94 -4 100 C-4 99.01 -4 98.02 -4 97 C-3.67 97.33 -3.34 97.66 -3 98 C-0.98 98.07 1.04 98.08 3.06 98.06 C4.17 98.05 5.27 98.04 6.41 98.04 C7.26 98.02 8.12 98.01 9 98 C8.44 91.67 7.88 85.33 7.31 79 C7.23 78.03 7.14 77.07 7.05 76.07 C5.41 57.82 3.54 39.59 1.58 21.37 C1.52 20.87 1.52 20.87 1.26 18.38 C1.06 16.55 0.86 14.71 0.66 12.87 C0.57 12.05 0.49 11.23 0.4 10.39 C0.32 9.68 0.24 8.98 0.16 8.25 C-0.04 5.51 0 2.75 0 0 Z " fill="#3E3E45" transform="translate(1717,673)"/>
    <path d="M0 0 C25.95 1.67 25.95 1.67 38.77 2.68 C64.1 4.68 89.45 6.14 114.83 7.4 C118.06 7.57 121.29 7.73 124.52 7.89 C171.32 10.24 218.08 12.1 264.94 12.64 C266.93 12.66 268.92 12.68 270.92 12.71 C273.35 12.74 275.77 12.76 278.2 12.79 C285.83 12.88 293.39 13.33 301 14 C298.77 36.9 295.38 59.61 292 82.36 C290.7 91.09 289.42 99.82 288.13 108.55 C288.06 109.02 288.06 109.02 287.71 111.38 C285.47 126.59 283.36 141.81 281.38 157.06 C280.55 163.48 279.68 169.9 278.81 176.31 C278.65 177.55 278.48 178.79 278.31 180.07 C278.16 181.24 278 182.41 277.83 183.61 C277.7 184.63 277.56 185.65 277.42 186.7 C277 189 277 189 276 190 C272.99 190.1 270 190.13 266.99 190.13 C266.04 190.13 265.08 190.13 264.09 190.13 C260.86 190.14 257.63 190.13 254.4 190.13 C252.09 190.13 249.78 190.13 247.47 190.13 C241.19 190.14 234.9 190.14 228.61 190.13 C222.03 190.13 215.45 190.13 208.87 190.14 C197.11 190.14 185.34 190.13 173.57 190.13 C162.92 190.12 152.26 190.13 141.6 190.13 C129.23 190.14 116.86 190.14 104.49 190.13 C97.94 190.13 91.39 190.13 84.84 190.14 C78.67 190.14 72.5 190.14 66.34 190.13 C64.08 190.13 61.82 190.13 59.56 190.13 C56.46 190.14 53.37 190.13 50.28 190.13 C49.39 190.13 48.5 190.13 47.59 190.13 C41.35 190.11 35.21 189.65 29 189 C26.57 178.36 24.75 167.7 23.11 156.91 C22.84 155.17 22.57 153.44 22.3 151.7 C21.59 147.1 20.89 142.51 20.19 137.91 C19.6 134.09 19.01 130.27 18.43 126.46 C14.97 104.05 11.56 81.64 8.27 59.21 C6.98 50.45 5.65 41.7 4.25 32.96 C4.18 32.51 4.18 32.51 3.82 30.24 C3.14 26.04 2.46 21.84 1.78 17.64 C1.54 16.17 1.3 14.71 1.07 13.25 C0.86 11.98 0.65 10.72 0.44 9.42 C0.03 6.23 -0.08 3.21 0 0 Z " fill="#3E3E45" transform="translate(872,698)"/>
    <path d="M0 0 C1.03 0.78 2.06 1.57 3.12 2.38 C17.89 13.43 32.96 24.02 49.11 32.95 C51.12 34.07 53.11 35.22 55.11 36.37 C72.14 46.14 90.01 53.72 108.25 60.94 C108.96 61.22 109.67 61.5 110.4 61.79 C117.57 64.63 124.67 67.41 132.17 69.26 C134 70 134 70 136 73 C123.46 73.03 110.92 73.05 98.38 73.06 C97.45 73.06 96.52 73.06 95.56 73.07 C63.7 73.09 31.86 72.8 0 72 C-1.44 69.13 -1.13 66.66 -1.13 63.45 C-1.13 62.78 -1.13 62.11 -1.13 61.42 C-1.14 59.19 -1.14 56.97 -1.13 54.75 C-1.13 53.2 -1.13 51.66 -1.14 50.12 C-1.14 46.89 -1.14 43.66 -1.13 40.42 C-1.12 36.27 -1.13 32.12 -1.13 27.97 C-1.14 24.78 -1.14 21.6 -1.13 18.42 C-1.13 16.89 -1.13 15.35 -1.14 13.82 C-1.14 11.69 -1.13 9.55 -1.13 7.42 C-1.13 6.2 -1.13 4.98 -1.13 3.73 C-1 1 -1 1 0 0 Z " fill="#3E3E45" transform="translate(1258,815)"/>
    <path d="M0 0 C28.05 0 56.1 0 85 0 C85.19 7.57 85.37 15.14 85.56 22.94 C85.62 25.33 85.69 27.72 85.75 30.19 C85.79 32.07 85.84 33.96 85.88 35.84 C85.91 36.83 85.93 37.82 85.96 38.83 C85.98 39.77 86 40.7 86.02 41.66 C86.04 42.48 86.06 43.29 86.08 44.13 C86 46 86 46 85 47 C82.26 47.1 79.54 47.14 76.8 47.13 C75.94 47.13 75.09 47.14 74.21 47.14 C71.39 47.14 68.57 47.13 65.75 47.12 C64.79 47.12 63.84 47.12 62.85 47.12 C48.86 47.1 34.87 46.93 20.88 46.56 C20.07 46.54 19.27 46.52 18.44 46.5 C16.18 46.45 13.93 46.38 11.68 46.32 C10.41 46.28 9.14 46.24 7.83 46.21 C5 46 5 46 4 45 C3.63 42.36 3.31 39.74 3.03 37.09 C2.94 36.29 2.85 35.49 2.76 34.66 C2.58 32.96 2.4 31.26 2.22 29.56 C1.94 26.97 1.66 24.39 1.37 21.81 C1.19 20.15 1.02 18.5 0.84 16.84 C0.76 16.07 0.67 15.31 0.58 14.52 C0.51 13.79 0.43 13.05 0.35 12.29 C0.28 11.65 0.22 11.02 0.15 10.36 C-0.07 6.91 0 3.45 0 0 Z " fill="#3E3E45" transform="translate(1734,841)"/>
  </g>
  <g>
    <path d="M0 0 C0.42 0 0.42 0 2.54 0.01 C2.98 0.01 2.98 0.01 5.21 0 C8.16 0 11.1 0.01 14.05 0.01 C14.56 0.01 14.56 0.01 17.14 0.02 C34.42 0.03 51.69 0.32 68.96 0.71 C84.84 1.07 100.7 1.15 116.59 1.06 C134.16 0.97 151.67 1.64 169.22 2.52 C169.72 2.54 169.72 2.54 172.22 2.66 C174.07 2.75 175.92 2.85 177.78 2.95 C183.95 3.25 183.95 3.25 186.18 2.14 C188.69 2.39 191.17 2.71 193.68 3.08 C199.22 3.84 204.55 4.28 210.16 4.14 C212.18 4.14 212.18 4.14 215.11 4.64 C217.82 5.08 220.06 5.14 222.79 5.08 C229.92 5.05 236.98 5.72 244.07 6.36 C256.01 7.44 267.92 8.37 279.9 8.79 C287.46 9.07 295 9.58 302.55 10.14 C303.67 10.22 304.8 10.31 305.96 10.39 C315.72 11.14 325.37 12.29 335.07 13.59 C341.45 14.45 347.84 15.23 354.23 16 C355.7 16.18 357.17 16.36 358.64 16.54 C366.3 17.49 373.79 18.24 381.52 18.09 C386.72 18.19 391.81 19.15 396.93 20.01 C399.21 20.38 401.5 20.75 403.78 21.12 C404.33 21.21 404.33 21.21 407.09 21.66 C412.29 22.47 417.49 23.12 422.71 23.74 C425.18 24.14 425.18 24.14 426.18 25.14 C429.05 25.66 431.92 26.12 434.81 26.55 C435.68 26.68 436.56 26.81 437.45 26.95 C439.31 27.23 441.16 27.5 443.01 27.78 C445.83 28.2 448.66 28.63 451.48 29.05 C453.28 29.32 455.08 29.59 456.87 29.86 C457.72 29.99 458.56 30.12 459.42 30.25 C463.73 30.88 467.81 31.18 472.18 31.14 C473.99 31.59 475.81 32.05 477.61 32.54 C483.67 33.96 489.9 34.71 496.05 35.64 C512.22 38.08 512.22 38.08 519.79 39.66 C524.44 40.6 529.12 41.36 533.8 42.14 C534.85 42.31 535.89 42.49 536.97 42.67 C544.24 43.87 551.5 44.84 558.84 45.55 C562.18 46.14 562.18 46.14 565.52 47.58 C569.83 49.42 573.96 50.25 578.55 51.08 C586.46 52.58 594.27 54.29 602.09 56.21 C606.1 57.16 610.15 57.88 614.22 58.61 C619.42 59.54 624.61 60.56 629.8 61.58 C630.87 61.78 631.93 61.98 633.03 62.2 C638.58 63.29 643.84 64.61 649.17 66.49 C652.09 67.43 655.01 67.83 658.05 68.2 C663.85 68.92 663.85 68.92 667.18 71.14 C669.31 71.68 671.46 72.15 673.61 72.58 C680.19 73.92 686.67 75.48 693.18 77.14 C696.01 77.85 698.84 78.56 701.68 79.26 C703.02 79.6 704.36 79.94 705.71 80.27 C706.85 80.56 708 80.84 709.18 81.14 C709.5 81.22 709.5 81.22 711.16 81.63 C713.04 82.11 714.93 82.57 716.82 83.04 C718.21 83.39 719.6 83.73 720.99 84.08 C721.67 84.25 722.36 84.42 723.07 84.59 C727.47 85.68 731.82 86.87 736.18 88.14 C743.56 90.26 750.95 92.37 758.37 94.38 C761.01 95.09 763.64 95.81 766.28 96.53 C770.19 97.6 774.11 98.66 778.03 99.71 C779.95 100.23 781.88 100.75 783.8 101.26 C784.79 101.53 785.78 101.79 786.8 102.06 C787.74 102.32 788.68 102.57 789.65 102.83 C790.5 103.06 791.34 103.29 792.22 103.52 C794.18 104.14 794.18 104.14 795.18 105.14 C796.27 105.26 797.36 105.39 798.49 105.51 C802.3 106.16 803.24 106.89 806.18 109.14 C808.09 109.91 808.09 109.91 810.24 110.51 C811.1 110.76 811.96 111 812.85 111.26 C815.51 111.96 818.18 112.65 820.84 113.33 C821.68 113.55 822.51 113.76 823.37 113.99 C825.05 114.41 826.72 114.84 828.4 115.25 C833.01 116.42 836.95 117.9 841.18 120.14 C847.14 122.41 853.22 124.2 859.43 125.7 C872.3 128.83 872.3 128.83 875.18 133.14 C878.3 134.33 878.3 134.33 881.18 135.14 C880.85 135.8 880.52 136.46 880.18 137.14 C876.01 137.58 873.18 136.84 869.43 135.2 C862.76 132.36 856.34 132.09 849.18 132.14 C848.85 131.48 848.52 130.82 848.18 130.14 C846.51 129.46 846.51 129.46 844.34 128.84 C843.53 128.61 842.72 128.37 841.89 128.13 C841.01 127.89 840.14 127.64 839.24 127.39 C831.47 125.15 823.8 122.74 816.18 120.06 C815.83 119.94 815.83 119.94 814.09 119.34 C813.5 119.13 812.91 118.92 812.3 118.71 C810.18 118.14 810.18 118.14 807 117.7 C802.58 117.05 798.32 116.04 793.99 114.96 C793.13 114.75 792.27 114.53 791.38 114.31 C789.57 113.86 787.75 113.41 785.94 112.96 C783.19 112.27 780.43 111.59 777.67 110.91 C775.9 110.47 774.13 110.03 772.36 109.58 C771.95 109.48 771.95 109.48 769.89 108.98 C765.06 107.76 760.72 106.15 756.18 104.14 C754.68 103.69 753.16 103.28 751.64 102.93 C751.23 102.83 751.23 102.83 749.16 102.35 C748.3 102.16 747.44 101.96 746.55 101.76 C744.69 101.33 742.83 100.9 740.97 100.47 C740.02 100.26 739.06 100.04 738.08 99.81 C735.19 99.14 732.3 98.45 729.41 97.74 C728.48 97.51 727.55 97.29 726.59 97.05 C724.82 96.62 723.05 96.19 721.28 95.75 C716.24 94.53 711.32 93.72 706.18 93.14 C696.39 91.51 686.8 89.08 677.18 86.7 C666.19 84 655.23 81.76 644.07 79.96 C640.04 79.31 636.09 78.47 632.12 77.56 C629.2 76.93 626.29 76.7 623.32 76.48 C621.18 76.14 621.18 76.14 619.02 75.22 C614.92 73.66 610.74 73.01 606.43 72.26 C605.46 72.09 604.5 71.92 603.51 71.75 C586.1 68.68 568.61 66.02 551.12 63.44 C549.39 63.17 547.67 62.88 545.95 62.58 C542.45 62.02 538.97 61.82 535.44 61.62 C532.54 61.19 529.98 60.53 527.16 59.71 C521.51 58.15 515.92 57.24 510.1 56.53 C509.09 56.4 508.08 56.28 507.04 56.14 C504.93 55.87 502.82 55.61 500.7 55.35 C497.48 54.95 494.27 54.54 491.05 54.13 C488.98 53.86 486.92 53.6 484.85 53.35 C483.9 53.22 482.95 53.1 481.97 52.98 C476.65 52.33 471.53 52.06 466.18 52.14 C464.77 52.04 463.36 51.91 461.96 51.74 C461.28 51.65 460.59 51.57 459.88 51.48 C459.2 51.39 458.51 51.29 457.8 51.2 C457.09 51.11 456.38 51.03 455.65 50.94 C450.44 50.27 450.44 50.27 448.18 49.14 C446.82 49.14 445.47 49.19 444.11 49.26 C439.49 49.32 435.19 48.66 430.67 47.77 C421.21 46.01 411.71 45.06 402.13 44.2 C399.28 43.95 396.44 43.68 393.6 43.41 C391.75 43.24 389.9 43.08 388.06 42.91 C387.64 42.87 387.64 42.87 385.54 42.67 C381.25 42.3 377.02 42.11 372.71 42.14 C367.34 42.18 362.07 41.8 356.72 41.3 C354.72 41.12 352.71 40.94 350.71 40.77 C349.68 40.67 348.64 40.58 347.57 40.49 C330.72 38.99 313.91 37.76 296.99 37.39 C296.22 37.37 295.46 37.36 294.67 37.34 C286.26 37.16 277.85 37.12 269.43 37.23 C266.18 37.14 266.18 37.14 262.77 36.64 C255.98 35.74 249.09 36 242.26 36.01 C240.69 36.01 239.11 36 237.53 36 C234.22 36 230.91 36 227.6 36.01 C223.46 36.01 219.31 36.01 215.17 36.01 C196.92 35.98 178.73 36.23 160.5 36.92 C153.11 37.19 145.75 37.22 138.36 37.14 C119.61 37.06 100.99 37.71 82.31 39.48 C76.96 39.97 71.71 40.22 66.33 40.13 C63.69 40.14 61.12 40.49 58.51 40.86 C55.57 41.21 52.63 41.39 49.68 41.58 C39.86 42.2 30.07 43.03 20.28 43.87 C18.23 44.05 16.19 44.22 14.14 44.39 C11.23 44.64 8.33 44.89 5.43 45.14 C5 45.17 5 45.17 2.83 45.35 C-1.6 45.75 -5.95 46.31 -10.33 47.08 C-17.67 48.35 -25.05 49.05 -32.46 49.77 C-36.76 50.19 -41.05 50.62 -45.35 51.06 C-46.22 51.15 -47.1 51.24 -48 51.33 C-56.84 52.23 -65.68 53.23 -74.51 54.26 C-75.21 54.34 -75.9 54.42 -76.62 54.51 C-99.05 57.11 -99.05 57.11 -106.95 59.76 C-111.37 61.2 -115.27 61.36 -119.89 61.15 C-120.53 61.14 -121.17 61.14 -121.82 61.14 C-122.15 61.47 -122.48 61.8 -122.82 62.14 C-124.7 62.32 -126.57 62.46 -128.45 62.58 C-133.18 62.93 -137.29 63.71 -141.82 65.14 C-147.25 66.5 -152.53 67.23 -158.11 67.51 C-165.72 68.03 -173.11 69.25 -180.6 70.67 C-182.78 71.08 -184.97 71.48 -187.16 71.88 C-193.48 73.05 -199.65 74.34 -205.82 76.14 C-209.73 77.03 -213.65 77.8 -217.57 78.58 C-218.68 78.8 -219.79 79.02 -220.93 79.25 C-228.24 80.68 -235.56 81.94 -242.92 83.04 C-250.34 84.17 -257.67 85.66 -265.01 87.17 C-268.82 87.95 -272.63 88.65 -276.46 89.34 C-282.21 90.36 -287.57 91.62 -293.05 93.64 C-295.53 94.33 -297.43 93.99 -299.82 93.14 C-299.8 90.9 -299.8 90.9 -298.82 88.14 C-296.29 86.47 -293.97 85.18 -291.26 83.89 C-289.71 83.11 -288.15 82.33 -286.6 81.55 C-285.8 81.15 -285.01 80.76 -284.19 80.35 C-280.52 78.47 -276.96 76.39 -273.39 74.33 C-268.57 71.57 -263.87 69.27 -258.65 67.36 C-253.72 65.23 -249.09 62.5 -244.42 59.84 C-237.98 56.18 -231.47 52.82 -224.7 49.83 C-208.98 42.74 -208.98 42.74 -202.29 38.55 C-199.53 36.97 -196.85 36.14 -193.82 35.14 C-190.29 33.65 -186.81 32.05 -183.32 30.45 C-182.35 30.01 -181.37 29.56 -180.37 29.1 C-173.79 26.09 -167.31 22.95 -160.9 19.61 C-157.93 18.19 -154.97 17.04 -151.89 15.92 C-147.82 14.38 -143.87 12.54 -139.91 10.74 C-131.42 6.96 -123.63 4.67 -114.32 3.95 C-113.37 3.87 -112.42 3.79 -111.43 3.71 C-104.12 3.13 -96.88 3 -89.55 3.17 C-86.34 3.14 -83.34 2.8 -80.17 2.36 C-74.91 1.86 -69.6 2.09 -64.32 2.14 C-52.1 2.2 -39.89 2.06 -27.67 1.77 C-25.86 1.72 -24.04 1.68 -22.23 1.64 C-19.68 1.58 -17.13 1.52 -14.58 1.46 C-13.81 1.44 -13.04 1.42 -12.24 1.4 C-7.77 1.28 -4.51 0.02 0 0 Z " fill="#69BC48" transform="translate(869.8247833251953,6.861175537109375)"/>
    <path d="M0 0 C1.22 0.03 2.44 0.05 3.7 0.08 C7.59 0.16 11.48 0.25 15.37 0.34 C20.49 0.46 25.62 0.58 30.75 0.69 C31.93 0.72 33.1 0.75 34.32 0.78 C34.87 0.79 34.87 0.79 37.65 0.85 C38.13 0.86 38.13 0.86 40.56 0.92 C43.24 0.84 43.24 0.84 45.88 0.29 C49.33 -0.36 52.21 0.78 55.49 1.78 C61.22 3.37 66.37 4.11 72.3 3.91 C82.2 3.58 91.78 5.06 101.55 6.49 C105.04 6.95 108.54 7.24 112.05 7.48 C114.43 7.87 116.15 8.66 118.24 9.84 C117.88 12.27 117.68 13.5 115.71 15.04 C115.06 15.37 114.41 15.69 113.74 16.03 C113.02 16.4 112.31 16.76 111.56 17.14 C110.8 17.52 110.03 17.89 109.24 18.28 C107.69 19.07 106.13 19.87 104.58 20.66 C104.2 20.85 104.2 20.85 102.31 21.8 C99.8 23.07 97.33 24.37 94.87 25.72 C94.54 25.89 94.54 25.89 92.91 26.77 C91.24 27.84 91.24 27.84 89.77 29.39 C87.94 31.13 86.55 31.52 84.12 32.16 C78.8 33.79 74.74 36.65 70.24 39.84 C68.01 41.2 65.77 42.54 63.52 43.85 C52.02 50.77 38.74 60.6 31.24 71.84 C29.59 72.87 27.92 73.87 26.24 74.84 C22.84 77.29 21 79.08 19.24 82.84 C18.25 83.5 17.26 84.16 16.24 84.84 C15.2 86.49 14.21 88.16 13.24 89.84 C12.17 91.31 11.08 92.77 9.99 94.22 C-3.78 113.76 -10.36 139.42 -6.95 163.16 C-6.28 166.97 -5.24 170.27 -3.76 173.84 C-3.4 175.13 -3.06 176.42 -2.76 177.72 C0.49 191.57 5.46 204.57 14.24 215.84 C14.92 216.88 15.6 217.91 16.3 218.97 C20.19 224.73 24.18 230.04 29.24 234.84 C32.86 238.28 35.83 241.87 38.78 245.87 C42.49 250.89 46.45 255.02 51.19 259.04 C53.21 260.81 55.07 262.67 56.93 264.59 C59.52 267.23 62.04 268.97 65.24 270.84 C68.55 273.56 71.81 276.35 74.78 279.44 C76.74 281.32 79.04 282.5 81.41 283.81 C84.93 285.8 88.26 287.82 91.07 290.75 C93.46 293.06 95.91 294.67 98.74 296.41 C102.03 298.43 105.17 300.5 108.24 302.84 C109.9 303.86 111.57 304.85 113.24 305.84 C114.39 306.57 115.53 307.3 116.68 308.03 C120.57 310.46 124.52 312.79 128.49 315.09 C129.09 315.45 129.7 315.8 130.32 316.16 C133.28 317.87 135.93 319.06 139.24 319.84 C139.57 320.5 139.9 321.16 140.24 321.84 C142.23 322.86 144.23 323.86 146.24 324.84 C148.19 326.05 150.11 327.3 152.02 328.56 C154.39 329.93 156.84 330.93 159.36 331.99 C162.63 333.48 165.63 335.39 168.68 337.28 C181.74 345.25 181.74 345.25 186.24 346.32 C188.9 347.02 191.05 348.42 193.4 349.81 C195.62 351.05 197.91 352.04 200.26 353.01 C202.59 353.99 204.88 355.04 207.18 356.09 C212.62 358.58 218.09 360.97 223.58 363.34 C227.54 365.06 231.4 366.89 235.24 368.84 C241.3 371.7 247.52 374.19 253.75 376.65 C255.58 377.37 257.41 378.11 259.24 378.84 C259.87 379.09 260.5 379.34 261.16 379.59 C265.93 381.51 265.93 381.51 267.65 383.32 C269.61 385.2 271.34 385.84 273.89 386.76 C274.88 387.12 275.86 387.48 276.87 387.85 C277.41 388.04 277.41 388.04 280.18 389.03 C281.99 389.69 283.8 390.34 285.61 391 C286.95 391.48 288.28 391.97 289.61 392.45 C294.33 394.15 299.04 395.88 303.74 397.62 C327.1 406.3 350.58 414.35 374.39 421.71 C380.34 423.55 386.25 425.48 392.16 427.43 C408.42 432.79 424.9 437.22 441.46 441.58 C445.37 442.61 449.29 443.66 453.2 444.72 C470.41 449.39 487.68 453.77 505.06 457.79 C506.99 458.24 508.93 458.69 510.86 459.14 C513.56 459.78 516.27 460.39 518.98 461.01 C519.77 461.19 520.56 461.38 521.37 461.57 C526.34 462.68 530.94 462.99 536.03 462.83 C539.27 462.85 542.05 463.71 545.12 464.72 C552.5 466.98 559.9 468.94 567.67 468.77 C571.48 468.85 574.37 469.61 577.99 470.78 C583.18 472.34 587.88 473.23 593.26 473.58 C596.98 473.91 600.63 474.5 604.3 475.16 C604.94 475.27 604.94 475.27 608.15 475.83 C611.18 476.48 613.78 477.49 616.6 478.76 C623.08 481.38 629.66 482.28 636.55 483.25 C637.94 483.45 639.33 483.66 640.72 483.86 C644.42 484.41 648.12 484.93 651.82 485.46 C654.13 485.78 656.43 486.11 658.73 486.45 C683.1 489.97 707.49 493.09 731.98 495.61 C734.95 495.92 737.92 496.24 740.88 496.57 C744.21 496.94 747.54 497.3 750.87 497.66 C752 497.78 753.13 497.9 754.3 498.03 C760.64 498.69 766.86 498.97 773.24 498.84 C776.12 498.84 778.44 499.26 781.24 499.84 C785.94 500.71 790.62 501.18 795.37 501.53 C796.17 501.59 796.97 501.65 797.8 501.71 C800.47 501.9 803.14 502.09 805.8 502.28 C806.73 502.35 807.66 502.41 808.62 502.48 C839.82 504.64 871.15 506.02 902.43 506.03 C903.08 506.03 903.08 506.03 906.39 506.03 C914.97 505.98 914.97 505.98 917.24 504.84 C917.99 502.84 918.66 500.82 919.3 498.78 C923.41 486.56 930.4 475.93 937.68 465.39 C939.24 462.84 939.24 462.84 940.24 459.03 C941.56 454.83 943.85 453.25 947.21 450.55 C949.08 448.98 950.5 447.44 951.99 445.53 C954.17 442.93 955.29 442.23 958.24 440.84 C960.77 438.51 962.99 436.17 965.07 433.44 C967.32 430.75 969.65 428.78 972.43 426.66 C977.14 423.05 977.14 423.05 978.24 420.84 C979.59 420.1 980.97 419.42 982.37 418.78 C987.04 416.53 991.44 413.98 995.87 411.28 C1009.23 403.18 1009.23 403.18 1017.24 401.84 C1019.08 400.91 1020.91 399.98 1022.74 399.04 C1064.31 379.09 1111.14 371.23 1156.52 365.74 C1157.38 365.64 1158.25 365.53 1159.14 365.42 C1159.52 365.38 1159.52 365.38 1161.41 365.15 C1163.24 364.84 1163.24 364.84 1165.24 363.84 C1169.81 363.17 1174.4 362.74 1178.99 362.28 C1179.33 362.25 1179.33 362.25 1181.02 362.07 C1193.08 360.87 1205.12 360.21 1217.24 360.84 C1217.57 361.17 1217.9 361.5 1218.24 361.84 C1219.64 361.98 1221.05 362.05 1222.45 362.09 C1223.35 362.12 1224.26 362.15 1225.19 362.19 C1226.18 362.21 1227.17 362.24 1228.2 362.27 C1230.32 362.34 1232.45 362.42 1234.58 362.49 C1235.71 362.53 1236.83 362.56 1237.99 362.6 C1276.92 363.91 1315.27 367.69 1353.94 372.23 C1354.84 372.33 1355.73 372.43 1356.65 372.54 C1358.37 372.74 1360.08 372.94 1361.79 373.15 C1362.19 373.2 1362.19 373.2 1364.19 373.43 C1364.88 373.51 1365.57 373.59 1366.28 373.68 C1368.28 373.85 1370.23 373.84 1372.24 373.78 C1387.35 373.68 1402.3 377.3 1416.99 380.42 C1419.24 380.84 1419.24 380.84 1421.24 380.84 C1421.57 381.5 1421.9 382.16 1422.24 382.84 C1425.06 383.62 1427.83 384.3 1430.68 384.91 C1439.04 386.74 1439.04 386.74 1441.24 387.84 C1444.22 394.66 1444.92 401.47 1445.6 408.81 C1446.15 414.75 1446.15 414.75 1447.24 415.84 C1447.26 417.39 1447.23 418.93 1447.18 420.47 C1447.13 424.99 1447.99 428.49 1449.24 432.84 C1449.54 436.28 1449.74 439.7 1449.9 443.15 C1450.01 444.04 1450.13 444.93 1450.24 445.84 C1457.21 449.33 1467.84 447.99 1475.52 447.99 C1476.57 447.99 1477.63 448 1478.71 448 C1482.16 448.01 1485.6 448.01 1489.05 448.01 C1491.46 448.01 1493.87 448.02 1496.28 448.02 C1501.32 448.03 1506.35 448.03 1511.39 448.03 C1517.84 448.03 1524.29 448.04 1530.74 448.06 C1535.71 448.07 1540.68 448.07 1545.65 448.07 C1548.03 448.07 1550.41 448.08 1552.79 448.09 C1556.11 448.1 1559.43 448.09 1562.75 448.09 C1563.72 448.09 1564.7 448.1 1565.71 448.1 C1570.67 448.08 1574.56 447.66 1579.24 445.84 C1583 445.61 1583 445.61 1586.93 445.66 C1588.23 445.66 1589.54 445.67 1590.88 445.68 C1594.24 445.84 1594.24 445.84 1597.24 446.84 C1597.84 446.81 1597.84 446.81 1600.87 446.66 C1608.86 446.64 1614.1 450.39 1619.74 455.78 C1623.09 459.13 1624.62 461.15 1625.24 465.84 C1625.76 466.92 1626.27 467.99 1626.8 469.09 C1628.66 473.24 1628.88 477.37 1628.24 481.84 C1627.59 483.18 1626.92 484.52 1626.24 485.84 C1626.18 486.92 1626.12 487.99 1626.05 489.09 C1624.92 494.35 1621.96 497.11 1618.24 500.84 C1617.63 501.53 1617.02 502.21 1616.39 502.91 C1610.95 507.8 1602.85 510.16 1595.62 510.22 C1592.11 510.01 1588.62 509.69 1585.13 509.33 C1579.31 508.8 1573.54 508.7 1567.7 508.71 C1566.66 508.71 1565.61 508.71 1564.53 508.71 C1562.34 508.71 1560.15 508.71 1557.96 508.71 C1554.59 508.72 1551.22 508.71 1547.86 508.71 C1545.72 508.71 1543.59 508.71 1541.45 508.71 C1540.44 508.71 1539.43 508.71 1538.39 508.7 C1537.47 508.71 1536.54 508.71 1535.59 508.71 C1535.18 508.71 1535.18 508.71 1533.11 508.72 C1531.24 508.84 1531.24 508.84 1530.24 509.84 C1528.04 509.93 1525.84 509.95 1523.64 509.94 C1522.96 509.93 1522.29 509.93 1521.6 509.93 C1514.37 509.87 1507.15 509.61 1499.93 509.34 C1485.7 508.85 1471.49 508.72 1457.24 508.84 C1457.15 515.42 1457.17 521.78 1458.18 528.28 C1459.07 534.33 1459.63 540.33 1460 546.43 C1460.24 548.84 1460.24 548.84 1461.24 549.84 C1463.37 559.93 1464.52 570.42 1464.24 580.72 C1464.04 588.19 1464.74 595.43 1465.68 602.84 C1465.81 603.9 1465.95 604.96 1466.09 606.05 C1467.1 613.55 1467.1 613.55 1468.24 615.84 C1480.07 617.68 1492.51 616.99 1504.44 616.98 C1506.44 616.98 1508.45 616.98 1510.46 616.98 C1514.63 616.98 1518.8 616.98 1522.98 616.97 C1528.32 616.97 1533.67 616.97 1539.01 616.98 C1543.14 616.98 1547.27 616.98 1551.4 616.98 C1553.38 616.98 1555.35 616.98 1557.32 616.98 C1560.07 616.98 1562.81 616.98 1565.56 616.97 C1566.37 616.98 1567.18 616.98 1568.01 616.98 C1571.9 616.96 1575.45 616.68 1579.24 615.84 C1580.91 615.74 1582.58 615.69 1584.24 615.67 C1585.21 615.65 1586.18 615.64 1587.18 615.63 C1588.21 615.62 1589.24 615.61 1590.31 615.61 C1591.38 615.6 1592.45 615.59 1593.55 615.58 C1595.81 615.57 1598.07 615.56 1600.33 615.55 C1603.8 615.53 1607.26 615.49 1610.72 615.44 C1612.91 615.43 1615.11 615.42 1617.31 615.42 C1618.34 615.4 1619.38 615.38 1620.45 615.36 C1627.66 615.39 1627.66 615.39 1630.74 617.8 C1631.24 618.47 1631.73 619.15 1632.24 619.84 C1635.22 621.04 1635.22 621.04 1638.43 621.97 C1640.38 622.54 1642.33 623.15 1644.24 623.84 C1644.57 624.5 1644.9 625.16 1645.24 625.84 C1646.23 625.84 1647.22 625.84 1648.24 625.84 C1649.06 627.57 1649.87 629.3 1650.68 631.03 C1651.13 631.99 1651.58 632.96 1652.05 633.95 C1655.52 642.37 1655.41 651.66 1652.3 660.16 C1648.9 667.53 1643.73 670.98 1636.74 674.72 C1632.52 676.08 1628.64 676.51 1624.24 676.84 C1623.32 676.93 1622.39 677.01 1621.43 677.1 C1613.16 677.82 1604.98 677.93 1596.68 677.84 C1594.22 677.82 1591.76 677.8 1589.3 677.78 C1588.23 677.77 1587.16 677.76 1586.06 677.75 C1583.59 677.83 1581.61 678.23 1579.24 678.84 C1578.91 678.51 1578.58 678.18 1578.24 677.84 C1576.81 677.75 1575.37 677.72 1573.94 677.71 C1573.02 677.71 1572.11 677.71 1571.17 677.7 C1570.67 677.71 1570.67 677.71 1568.15 677.71 C1567.14 677.71 1566.12 677.71 1565.08 677.71 C1562.93 677.71 1560.77 677.71 1558.62 677.71 C1555.32 677.72 1552.02 677.71 1548.72 677.71 C1546.64 677.71 1544.55 677.71 1542.46 677.71 C1541.47 677.71 1540.48 677.71 1539.46 677.7 C1539 677.71 1539 677.71 1536.68 677.71 C1535.87 677.72 1535.06 677.72 1534.22 677.72 C1532.24 677.84 1532.24 677.84 1530.24 678.84 C1528.24 678.95 1526.24 678.97 1524.24 678.97 C1523.61 678.97 1522.98 678.97 1522.32 678.97 C1514.3 678.9 1506.27 678.51 1498.26 678.11 C1497.18 678.06 1496.1 678.01 1494.99 677.96 C1494.03 677.92 1493.06 677.87 1492.07 677.82 C1489.24 677.84 1489.24 677.84 1486.12 678.4 C1482.42 678.97 1479.78 677.93 1476.24 676.84 C1475.58 677.17 1474.92 677.5 1474.24 677.84 C1474.58 688.86 1475.99 699.51 1477.96 710.35 C1479.05 716.78 1479.2 722.4 1478.48 728.87 C1478 734.87 1478.72 740.91 1479.28 746.9 C1479.77 754.19 1479.77 754.19 1477.13 757.47 C1472.46 759.69 1467.7 759.96 1462.57 760.12 C1461.52 760.16 1460.46 760.2 1459.37 760.24 C1458.27 760.27 1457.18 760.31 1456.05 760.34 C1434.66 761.04 1434.66 761.04 1429.24 762.84 C1425.9 762.9 1422.57 762.87 1419.22 762.8 C1413.69 762.74 1413.69 762.74 1411.05 763.34 C1407.2 764.03 1403.4 763.99 1399.51 763.97 C1398.64 763.97 1397.77 763.96 1396.87 763.96 C1385.57 763.88 1374.28 763.35 1362.99 762.84 C1359.71 762.7 1356.44 762.56 1353.16 762.42 C1351.14 762.33 1349.12 762.24 1347.11 762.15 C1342.98 761.97 1338.88 761.82 1334.75 761.85 C1331.24 761.84 1331.24 761.84 1328.37 761.34 C1325.68 760.91 1323.38 760.81 1320.68 760.84 C1305.72 761 1305.72 761 1299.24 758.84 C1297.87 758.8 1296.49 758.8 1295.12 758.84 C1293.84 758.84 1292.56 758.84 1291.24 758.84 C1290.91 758.51 1290.58 758.18 1290.24 757.84 C1287.24 757.4 1284.25 757.01 1281.24 756.65 C1280.78 756.6 1280.78 756.6 1278.48 756.32 C1276.54 756.09 1274.6 755.86 1272.66 755.63 C1269.72 755.29 1266.77 754.93 1263.83 754.57 C1261.94 754.35 1260.06 754.13 1258.18 753.9 C1257.3 753.8 1256.43 753.69 1255.53 753.58 C1250.39 752.99 1245.42 752.8 1240.24 752.84 C1238.67 752.69 1237.11 752.51 1235.55 752.26 C1234.75 752.13 1233.95 752.01 1233.13 751.88 C1232.72 751.81 1232.72 751.81 1230.68 751.47 C1229.87 751.34 1229.06 751.22 1228.22 751.09 C1223.44 750.31 1218.9 749.19 1214.24 747.84 C1212.62 747.63 1211 747.45 1209.37 747.34 C1202.74 746.75 1196.76 745.56 1190.63 742.93 C1185.35 740.79 1180.05 739.44 1174.49 738.22 C1168.97 736.98 1163.61 735.66 1158.24 733.84 C1156.33 733.45 1154.42 733.1 1152.49 732.78 C1147.45 731.95 1147.45 731.95 1145.24 730.84 C1144.91 730.18 1144.58 729.52 1144.24 728.84 C1142.52 728.12 1142.52 728.12 1140.29 727.45 C1112.17 718.58 1084.17 706.29 1059.01 690.92 C1056.73 689.53 1054.42 688.19 1052.12 686.84 C1040.16 679.62 1028.89 671.51 1017.81 663.01 C1013.56 659.84 1013.56 659.84 1010.24 659.84 C1006.06 657.57 1003.16 655.22 1001.24 650.84 C999.6 649.14 997.94 647.49 996.24 645.84 C993.28 642.91 990.32 639.97 987.37 637.03 C986.98 636.65 986.98 636.65 985.01 634.7 C977.13 626.85 969.26 618.88 964.24 608.84 C964.02 608.62 964.02 608.62 962.88 607.5 C961.07 605.67 959.68 603.78 958.24 601.66 C957.75 600.94 957.25 600.23 956.74 599.49 C955.5 597.3 954.66 595.38 953.83 593.03 C952.28 588.74 950.18 584.95 947.87 581.03 C945.22 576.44 942.7 571.89 940.55 567.03 C938.88 563.25 937.2 559.49 935.37 555.78 C934.94 554.88 934.51 553.98 934.06 553.06 C931.6 550.06 928.92 549.54 925.24 548.84 C922.12 548.54 919.02 548.47 915.88 548.43 C914.99 548.41 914.09 548.39 913.17 548.37 C910.28 548.31 907.39 548.26 904.49 548.22 C902.5 548.18 900.51 548.14 898.52 548.1 C886.48 547.87 874.44 547.74 862.4 547.88 C857.26 547.93 852.31 547.71 847.21 547.07 C844.64 546.78 842.13 546.78 839.55 546.84 C836.72 546.91 834.22 546.84 831.43 546.34 C826.88 545.63 822.37 545.8 817.78 545.88 C814.22 545.92 810.78 545.83 807.25 545.37 C801.42 544.7 795.58 544.53 789.71 544.34 C788.52 544.3 787.33 544.26 786.11 544.22 C782.32 544.09 778.53 543.97 774.74 543.84 C769.77 543.68 764.8 543.51 759.84 543.34 C758.64 543.3 757.45 543.26 756.22 543.22 C748.39 542.95 740.58 542.56 732.76 542.02 C728.84 541.82 724.98 541.85 721.05 541.91 C714.65 541.96 708.62 541.31 702.31 540.29 C698.56 539.75 695.02 539.77 691.24 539.84 C690.95 539.76 690.95 539.76 689.5 539.35 C685.05 538.35 680.4 538.83 675.87 538.91 C672.76 538.85 670.26 538.45 667.24 537.84 C665.61 537.68 663.98 537.55 662.35 537.44 C661.4 537.38 660.46 537.31 659.49 537.25 C658.98 537.22 658.98 537.22 656.43 537.05 C655.38 536.99 654.34 536.92 653.26 536.85 C651.05 536.71 648.84 536.57 646.63 536.43 C643.25 536.22 639.88 536 636.5 535.77 C634.35 535.64 632.2 535.5 630.05 535.37 C629.55 535.33 629.55 535.33 627 535.16 C626.05 535.11 625.11 535.05 624.14 534.99 C623.31 534.94 622.48 534.88 621.63 534.83 C619.05 534.84 616.76 535.32 614.24 535.84 C611.62 535.54 611.62 535.54 608.8 534.97 C602.87 533.87 597.01 533.41 590.98 533.09 C588.24 532.84 588.24 532.84 587.24 531.84 C584.68 531.46 582.13 531.13 579.55 530.84 C578.78 530.76 578 530.67 577.2 530.58 C571.61 529.96 566.03 529.49 560.41 529.12 C554.6 528.74 548.8 528.29 542.99 527.84 C542.43 527.8 542.43 527.8 539.6 527.59 C538.55 527.51 537.5 527.43 536.41 527.34 C535.47 527.27 534.52 527.2 533.54 527.12 C531.24 526.84 531.24 526.84 529.24 525.84 C528.23 525.84 527.22 525.84 526.18 525.84 C525.21 525.84 524.24 525.84 523.24 525.84 C522.91 525.51 522.58 525.18 522.24 524.84 C520.41 524.57 518.57 524.35 516.73 524.16 C515.59 524.04 514.44 523.92 513.26 523.79 C512.04 523.66 510.82 523.54 509.55 523.41 C502.11 522.62 494.7 521.83 487.3 520.66 C483.13 520.01 479.22 519.8 474.99 519.91 C470.11 520.01 466.38 519.13 461.79 517.57 C458.04 516.5 454.34 516.34 450.47 516.09 C443.79 515.58 437.15 514.51 430.55 513.38 C426.73 512.76 422.9 512.24 419.06 511.72 C417.48 511.51 415.89 511.29 414.31 511.08 C411.84 510.74 409.37 510.41 406.9 510.08 C404.49 509.75 402.09 509.43 399.69 509.1 C398.96 509 398.23 508.91 397.48 508.81 C392.63 508.14 387.99 507.06 383.24 505.84 C381.12 505.6 379 505.41 376.87 505.28 C371.44 504.94 371.44 504.94 369.24 503.84 C368.01 503.88 366.77 503.92 365.5 503.96 C358.86 504.03 352.57 502.45 346.12 501.03 C344.8 500.75 343.49 500.47 342.18 500.19 C338.53 499.42 334.89 498.63 331.24 497.84 C321.47 495.77 311.66 494.07 301.79 492.47 C293.14 491.04 284.55 489.37 275.97 487.59 C269.85 486.34 263.73 485.24 257.55 484.3 C255.24 483.84 255.24 483.84 254.24 482.84 C251.2 482.37 248.17 481.94 245.12 481.53 C237.47 480.45 230.21 478.98 222.8 476.81 C216.52 475.11 210.14 474 203.74 472.84 C202.84 472.68 201.93 472.51 201 472.34 C199.13 472 197.26 471.67 195.39 471.34 C194.5 471.18 193.6 471.01 192.68 470.84 C191.87 470.7 191.07 470.56 190.24 470.41 C188.24 469.84 188.24 469.84 186.24 467.84 C184.27 467.25 184.27 467.25 181.82 466.77 C180.91 466.58 180 466.39 179.05 466.19 C178.56 466.1 178.56 466.1 176.05 465.59 C166.6 463.63 157.27 461.37 147.96 458.81 C143.94 457.72 140.06 456.75 135.91 456.32 C132.38 455.86 130.17 455.1 127.05 453.47 C122.06 451.07 117.28 449.8 111.87 448.66 C107.55 447.69 103.31 446.52 99.05 445.28 C98.31 445.07 97.57 444.86 96.8 444.64 C91.48 443.08 91.48 443.08 89.24 440.84 C87.05 440.13 84.84 439.5 82.62 438.91 C74.95 436.82 74.95 436.82 71.37 435.34 C67.53 433.82 63.56 432.92 59.55 431.97 C52.18 430.2 45.25 427.77 38.24 424.84 C37.33 424.46 36.41 424.09 35.47 423.7 C33.56 422.9 31.65 422.1 29.74 421.29 C25.26 419.43 20.75 417.64 16.24 415.84 C9.69 413.23 3.15 410.59 -3.35 407.85 C-4.9 407.2 -6.46 406.57 -8.03 405.95 C-10.99 404.75 -13.87 403.44 -16.76 402.09 C-17.89 401.57 -19.03 401.04 -20.2 400.5 C-22.57 399.4 -24.95 398.29 -27.32 397.19 C-28.45 396.66 -29.59 396.14 -30.76 395.59 C-31.79 395.11 -32.82 394.63 -33.88 394.14 C-35.71 393.32 -37.55 392.53 -39.42 391.79 C-42.09 390.71 -44.52 389.3 -47.02 387.85 C-52.01 384.97 -57.2 382.84 -62.59 380.81 C-64.76 379.84 -64.76 379.84 -66.76 377.84 C-67.85 377.58 -68.94 377.31 -70.07 377.03 C-74.26 375.68 -75.81 374.03 -78.76 370.84 C-80.39 369.79 -82.06 368.79 -83.76 367.84 C-85.05 367.04 -86.34 366.22 -87.63 365.41 C-90.28 363.74 -92.95 362.16 -95.7 360.66 C-98.76 358.84 -98.76 358.84 -99.76 356.84 C-104.67 352.74 -110.06 349.05 -115.55 345.77 C-120.62 342.72 -125.12 339.22 -129.66 335.42 C-131.76 333.84 -131.76 333.84 -133.76 333.84 C-135.11 332.53 -136.44 331.19 -137.76 329.84 C-140.28 327.84 -142.85 325.89 -145.42 323.94 C-147.86 321.75 -149.13 319.67 -150.76 316.84 C-152.34 315.32 -152.34 315.32 -154.01 314.03 C-158.08 310.69 -161.36 306.86 -164.76 302.84 C-165.9 301.55 -167.05 300.26 -168.2 298.97 C-171.57 295.13 -174.68 291.12 -177.77 287.04 C-179.76 284.84 -179.76 284.84 -182.35 283.33 C-185.16 281.6 -185.83 280.39 -187.13 277.41 C-188.96 273.46 -190.95 269.75 -193.2 266.03 C-198.59 256.9 -202.66 247.21 -206.67 237.41 C-207.76 234.84 -207.76 234.84 -209.32 231.84 C-213.48 223.16 -219.26 209.51 -216.12 199.88 C-215.21 197.77 -214.23 195.71 -213.2 193.66 C-213.01 193.28 -213.01 193.28 -212.09 191.38 C-210.04 187.21 -207.85 183.19 -205.45 179.22 C-200.27 170.66 -196.25 161.48 -192 152.45 C-190.3 148.88 -188.54 145.36 -186.76 141.84 C-186.29 140.91 -185.82 139.97 -185.34 139 C-184.38 137.09 -183.42 135.17 -182.46 133.26 C-181.23 130.79 -180 128.31 -178.77 125.83 C-169.39 106.92 -169.39 106.92 -164 99.64 C-162.65 97.69 -161.55 95.69 -160.45 93.59 C-157.4 87.97 -153.57 82.97 -149.76 77.84 C-145.21 71.61 -141.17 65.26 -137.43 58.51 C-135.78 55.87 -134 53.98 -131.76 51.84 C-130.84 50.47 -129.92 49.09 -129.03 47.69 C-125.41 42.43 -121.36 37.28 -116.76 32.84 C-116.04 32.1 -115.31 31.36 -114.57 30.59 C-105.17 21.4 -105.17 21.4 -99.76 18.84 C-99.18 18.48 -98.6 18.11 -98 17.73 C-86.74 10.72 -72.69 8.45 -59.88 5.74 C-57.09 5.15 -54.33 4.5 -51.57 3.8 C-42.1 1.42 -33.24 0.65 -23.52 0.87 C-19.76 0.84 -19.76 0.84 -16.82 0.33 C-11.24 -0.5 -5.62 -0.14 0 0 Z " fill="#69BC48" transform="translate(244.7578125,156.15625)"/>
  </g>
  <g>
    <path d="M0 0 C0.39 -0.01 0.39 -0.01 2.37 -0.05 C5.15 0.41 5.86 1.1 7.56 3.31 C7.92 5.69 7.92 5.69 7.9 8.52 C7.9 9.58 7.9 10.64 7.9 11.73 C7.89 12.88 7.87 14.02 7.86 15.2 C7.85 16.37 7.85 17.54 7.84 18.75 C7.83 22.5 7.79 26.25 7.75 30 C7.73 32.54 7.72 35.08 7.71 37.62 C7.68 43.85 7.63 50.08 7.56 56.31 C8.04 55.9 8.51 55.48 9 55.06 C9.63 54.51 10.25 53.97 10.9 53.41 C11.52 52.87 12.14 52.34 12.77 51.78 C14.91 50.03 17.07 48.76 19.56 47.56 C20.35 47.18 21.13 46.79 21.94 46.39 C32.15 42.2 44.68 41.41 55.2 45.21 C66.86 50.63 75.6 58.29 80.53 70.31 C85.58 84.94 86.22 99.07 80 113.41 C74.75 123.97 66.98 133.24 55.56 137.31 C43.36 140.84 30.16 140.99 18.56 135.31 C15.63 133.56 13.1 131.6 10.56 129.31 C9.95 128.76 9.33 128.22 8.7 127.65 C-0.6 118.9 -5.65 107.61 -6.62 94.89 C-6.69 92.42 -6.71 89.96 -6.7 87.49 C-6.7 86.56 -6.7 85.64 -6.71 84.69 C-6.72 81.67 -6.71 78.65 -6.7 75.62 C-6.7 73.51 -6.71 71.4 -6.71 69.29 C-6.71 64.89 -6.71 60.48 -6.7 56.08 C-6.69 50.43 -6.69 44.77 -6.71 39.12 C-6.71 34.77 -6.71 30.42 -6.71 26.07 C-6.7 23.98 -6.71 21.9 -6.71 19.81 C-6.72 16.91 -6.71 14.01 -6.7 11.1 C-6.7 10.24 -6.7 9.37 -6.71 8.48 C-6.67 2.52 -6.29 0.03 0 0 Z M15.56 65.31 C8.1 74.75 6.42 85.53 7.56 97.31 C9.77 108.5 14.36 116.6 23.56 123.31 C31.57 127.89 39.75 128.51 48.62 126.19 C58.2 122.97 63.12 117.2 67.56 108.31 C71.9 98.8 71.08 87.21 68.56 77.31 C65.28 68.65 60.99 62.02 52.43 58.07 C40.24 53.1 24.49 55.47 15.56 65.31 Z " fill="#3E3E45" transform="translate(2389.4375,924.6875)"/>
    <path d="M0 0 C1.23 -0.01 2.46 -0.03 3.72 -0.04 C5.06 -0.05 6.4 -0.05 7.75 -0.06 C8.08 -0.06 8.08 -0.06 9.8 -0.07 C13.37 -0.09 16.95 -0.11 20.53 -0.12 C24.22 -0.13 27.91 -0.16 31.61 -0.2 C34.45 -0.23 37.29 -0.24 40.13 -0.24 C41.5 -0.25 42.86 -0.26 44.22 -0.28 C46.12 -0.3 48.03 -0.3 49.93 -0.29 C51.02 -0.3 52.1 -0.3 53.22 -0.31 C56.73 0.3 57.95 1.31 60.03 4.18 C59.78 7.93 59.78 7.93 59.03 11.18 C54.92 13.14 51.67 13.4 47.14 13.34 C46.48 13.33 45.82 13.33 45.13 13.32 C43.02 13.3 40.9 13.27 38.78 13.24 C27.46 13.09 16.37 13.51 5.03 14.18 C5.03 27.71 5.03 41.24 5.03 55.18 C8.32 55.2 11.6 55.23 14.99 55.26 C18.17 55.29 21.34 55.34 24.52 55.38 C26.73 55.41 28.94 55.43 31.15 55.45 C34.33 55.47 37.5 55.52 40.68 55.57 C41.67 55.57 42.66 55.57 43.68 55.57 C44.14 55.58 44.14 55.58 46.47 55.63 C46.87 55.64 46.87 55.64 48.92 55.66 C51.03 56.18 51.03 56.18 52.83 58.02 C54.53 61.07 53.96 62.89 53.03 66.18 C50.59 68.61 49.93 68.44 46.58 68.5 C45.65 68.52 44.71 68.54 43.75 68.56 C42.77 68.57 41.79 68.58 40.77 68.59 C39.87 68.61 38.97 68.63 38.04 68.64 C34.66 68.71 31.28 68.75 27.91 68.8 C20.36 68.93 12.81 69.05 5.03 69.18 C5.03 86.67 5.03 104.16 5.03 122.18 C23.27 123.32 23.27 123.32 30.84 123.42 C32.51 123.46 34.18 123.49 35.85 123.52 C38.41 123.57 40.97 123.62 43.52 123.65 C46.05 123.69 48.57 123.74 51.09 123.8 C51.86 123.81 52.63 123.81 53.42 123.82 C58.8 123.95 58.8 123.95 61.03 126.18 C61.59 132.33 61.59 132.33 59.91 134.88 C57.16 136.78 54.99 136.55 51.66 136.55 C51.01 136.55 51.01 136.55 47.68 136.57 C46.24 136.56 44.81 136.55 43.37 136.54 C41.9 136.54 40.43 136.54 38.96 136.54 C35.88 136.54 32.8 136.53 29.72 136.51 C25.76 136.49 21.81 136.49 17.86 136.5 C14.82 136.5 11.78 136.49 8.75 136.48 C7.29 136.48 5.83 136.48 4.37 136.48 C2.34 136.48 0.3 136.47 -1.73 136.45 C-2.89 136.45 -4.05 136.44 -5.24 136.44 C-7.97 136.18 -7.97 136.18 -9.97 134.18 C-10.29 131.14 -10.48 128.18 -10.58 125.13 C-10.62 124.2 -10.66 123.27 -10.7 122.3 C-11.12 110.84 -11.13 99.37 -11.14 87.9 C-11.14 85.54 -11.14 83.18 -11.15 80.82 C-11.15 75.93 -11.15 71.04 -11.15 66.15 C-11.15 59.89 -11.17 53.62 -11.18 47.35 C-11.2 42.51 -11.2 37.66 -11.2 32.82 C-11.2 30.5 -11.2 28.19 -11.21 25.88 C-11.22 22.66 -11.22 19.45 -11.21 16.23 C-11.22 15.28 -11.22 14.33 -11.23 13.36 C-11.19 4.84 -11.19 4.84 -8.97 1.18 C-5.75 0.1 -3.38 0.03 0 0 Z " fill="#3E3E45" transform="translate(1946.968505859375,926.822998046875)"/>
    <path d="M0 0 C2.57 0.47 3.28 1.39 4.97 3.36 C5.89 5.27 5.89 5.27 6.66 7.45 C6.96 8.28 7.26 9.12 7.57 9.97 C7.89 10.88 8.21 11.79 8.54 12.73 C8.88 13.69 9.22 14.66 9.58 15.65 C10.72 18.84 11.85 22.04 12.97 25.24 C13.76 27.46 14.55 29.68 15.35 31.9 C17.02 36.6 18.69 41.29 20.35 45.99 C24.31 57.15 28.32 68.29 32.32 79.43 C34.37 85.13 36.41 90.83 38.45 96.53 C38.81 97.53 39.17 98.53 39.54 99.56 C40.35 101.83 41.16 104.1 41.97 106.36 C42.63 106.36 43.29 106.36 43.97 106.36 C44.25 105.58 44.52 104.79 44.81 103.98 C50.29 88.35 55.9 72.79 61.83 57.32 C65.79 46.96 69.52 36.52 73.18 26.05 C75.29 20.04 77.43 14.05 79.67 8.08 C80.06 7.03 80.46 5.98 80.86 4.89 C81.97 2.36 81.97 2.36 83.97 0.36 C90.93 -0.19 90.93 -0.19 93.97 1.43 C95.94 5.24 95.23 9.42 94.14 13.44 C93.75 14.47 93.36 15.49 92.95 16.55 C92.73 17.14 92.73 17.14 91.62 20.12 C91.13 21.39 90.65 22.66 90.16 23.93 C89.66 25.26 89.15 26.6 88.65 27.94 C87.61 30.72 86.57 33.49 85.52 36.26 C83.16 42.51 80.88 48.78 78.6 55.05 C61.6 101.45 61.6 101.45 55.09 117.94 C53.21 122.72 51.46 127.53 49.8 132.39 C48.97 134.36 48.97 134.36 46.97 136.36 C41.29 137.1 41.29 137.1 38.97 136.36 C35.84 132.21 33.95 128.13 32.23 123.24 C31.99 122.55 31.74 121.86 31.49 121.16 C30.96 119.67 30.44 118.19 29.92 116.7 C28.79 113.49 27.65 110.29 26.51 107.08 C25.91 105.4 25.31 103.71 24.71 102.03 C21.78 93.79 18.76 85.58 15.73 77.38 C14.85 74.99 13.96 72.59 13.08 70.2 C10.6 63.47 8.11 56.73 5.61 50.01 C-3.11 26.53 -3.11 26.53 -6.78 15.3 C-7.03 14.55 -7.28 13.8 -7.54 13.03 C-8.77 9.14 -9.43 6.26 -8.03 2.36 C-5.43 -0.23 -3.54 0.09 0 0 Z " fill="#3E3E45" transform="translate(2022.02734375,926.63671875)"/>
    <path d="M0 0 C0.33 11.22 0.66 22.44 1 34 C3.31 34.16 3.31 34.16 15 35 C18 39 18 39 17.81 42.12 C17 45 17 45 15 47 C12.63 47.3 10.26 47.5 7.88 47.62 C6.59 47.7 5.31 47.77 3.99 47.85 C3 47.9 2.02 47.95 1 48 C1.01 49.01 1.01 50.02 1.02 51.05 C1.08 60.55 1.13 70.04 1.16 79.53 C1.17 84.41 1.19 89.29 1.23 94.17 C1.26 98.87 1.28 103.58 1.28 108.29 C1.29 110.09 1.3 111.88 1.32 113.68 C1.34 116.2 1.34 118.71 1.34 121.22 C1.35 121.97 1.36 122.72 1.37 123.49 C1.34 128.51 1.34 128.51 -0.38 130.96 C-2.54 132.35 -4.02 132.37 -6.56 132.31 C-7.35 132.31 -8.13 132.3 -8.94 132.3 C-11 132 -11 132 -13 130 C-13.22 127.38 -13.31 124.87 -13.32 122.25 C-13.33 121.45 -13.34 120.65 -13.35 119.82 C-13.38 117.17 -13.4 114.52 -13.41 111.87 C-13.43 110.03 -13.45 108.2 -13.47 106.36 C-13.52 101.52 -13.56 96.69 -13.6 91.85 C-13.64 86.92 -13.69 81.98 -13.74 77.05 C-13.84 67.37 -13.92 57.68 -14 48 C-14.83 47.97 -15.66 47.95 -16.52 47.92 C-17.61 47.87 -18.69 47.81 -19.81 47.75 C-20.89 47.7 -21.97 47.66 -23.08 47.61 C-26 47 -26 47 -27.9 45.15 C-29.46 42.1 -28.91 40.23 -28 37 C-25.32 34.32 -23.61 34.61 -19.88 34.38 C-18.78 34.3 -17.68 34.23 -16.55 34.15 C-15.71 34.1 -14.87 34.05 -14 34 C-14.02 33.12 -14.03 32.23 -14.05 31.33 C-14.1 28.04 -14.14 24.75 -14.16 21.46 C-14.18 20.04 -14.2 18.62 -14.23 17.19 C-14.26 15.15 -14.28 13.1 -14.29 11.05 C-14.31 9.82 -14.32 8.59 -14.34 7.32 C-13.97 3.73 -13.15 1.87 -11 -1 C-7 -3.14 -4.69 -1.34 0 0 Z " fill="#3E3E45" transform="translate(2651,931)"/>
    <path d="M0 0 C10.01 -0.48 19.14 2.79 26.77 9.21 C28.95 11.45 30.84 13.73 32.77 16.21 C32.99 16.02 32.99 16.02 34.09 15.07 C35.34 14 36.6 12.93 37.85 11.86 C39.48 10.46 41.07 9.03 42.65 7.58 C52.14 0.37 62.14 -0.48 73.77 0.21 C83.72 1.83 91.88 7.23 98.27 14.92 C100.97 19.02 102.42 23.52 103.77 28.21 C103.95 28.8 104.13 29.39 104.31 29.99 C104.89 32.74 104.92 35.31 104.93 38.12 C104.94 39.31 104.95 40.5 104.96 41.73 C104.97 42.37 104.97 42.37 104.98 45.62 C104.98 46.94 104.99 48.26 104.99 49.61 C105 52.4 105.01 55.19 105.01 57.98 C105.02 61.55 105.04 65.13 105.07 68.7 C105.09 72.11 105.1 75.52 105.1 78.93 C105.11 80.21 105.13 81.5 105.14 82.82 C105.14 84.01 105.13 85.2 105.13 86.42 C105.13 86.95 105.13 86.95 105.14 89.6 C104.77 92.21 104.77 92.21 103.37 94.05 C101.37 95.5 100.23 95.58 97.77 95.52 C97.43 95.52 97.43 95.52 95.71 95.51 C93.77 95.21 93.77 95.21 90.77 93.21 C90.39 90.67 90.39 90.67 90.39 87.42 C90.38 86.2 90.37 84.98 90.36 83.73 C90.36 83.08 90.36 82.43 90.36 81.76 C90.37 79.71 90.35 77.67 90.33 75.63 C90.3 71.28 90.28 66.93 90.27 62.58 C90.26 57.56 90.24 52.54 90.19 47.52 C90.18 45.52 90.18 43.52 90.19 41.51 C90.12 33.35 89.83 26.92 84.46 20.39 C76.61 14.01 68.59 13.39 58.77 14.21 C52.62 15.8 47.51 19.02 43.77 24.21 C38.84 33.18 39.63 44.34 39.53 54.27 C39.49 56.55 39.46 58.83 39.43 61.12 C39.38 64.68 39.34 68.25 39.3 71.82 C39.26 75.28 39.21 78.74 39.15 82.21 C39.14 83.28 39.14 84.35 39.13 85.46 C39.11 86.45 39.09 87.44 39.08 88.46 C39.07 89.33 39.06 90.2 39.05 91.1 C38.77 93.21 38.77 93.21 36.77 95.21 C29.54 95.78 29.54 95.78 27.18 94.01 C25.28 91.58 25.39 90.03 25.37 86.96 C25.37 86.42 25.37 86.42 25.33 83.71 C25.33 83.13 25.33 83.13 25.33 80.2 C25.33 79.6 25.33 79.6 25.29 76.58 C25.25 72.75 25.23 68.91 25.21 65.08 C25.19 61.27 25.16 57.46 25.12 53.65 C25.09 51.28 25.08 48.91 25.08 46.54 C24.98 35.99 24.1 26.26 16.34 18.46 C11.28 14.31 6.24 13.25 -0.23 13.21 C-7.45 14.03 -15.27 15.47 -20.23 21.21 C-24.44 27.91 -26.38 33.96 -26.31 41.87 C-26.3 42.98 -26.3 44.09 -26.29 45.23 C-26.28 46.42 -26.27 47.61 -26.25 48.84 C-26.24 51.36 -26.23 53.88 -26.22 56.41 C-26.19 60.38 -26.16 64.36 -26.13 68.33 C-26.1 72.17 -26.08 76 -26.07 79.84 C-26.05 81.03 -26.04 82.23 -26.03 83.46 C-26.02 84.56 -26.02 85.67 -26.02 86.81 C-26.01 87.29 -26.01 87.29 -25.99 89.75 C-26.23 92.21 -26.23 92.21 -28.23 95.21 C-30.54 95.57 -30.54 95.57 -33.23 95.52 C-34.11 95.52 -35 95.51 -35.91 95.51 C-38.23 95.21 -38.23 95.21 -40.23 93.21 C-40.43 90.36 -40.51 87.6 -40.5 84.75 C-40.51 83.88 -40.51 83 -40.52 82.1 C-40.53 79.2 -40.53 76.3 -40.53 73.39 C-40.53 71.38 -40.54 69.37 -40.54 67.36 C-40.55 63.15 -40.55 58.93 -40.54 54.71 C-40.54 49.3 -40.55 43.89 -40.58 38.47 C-40.59 34.32 -40.59 30.17 -40.59 26.02 C-40.59 24.02 -40.59 22.02 -40.6 20.02 C-40.62 17.24 -40.61 14.45 -40.6 11.66 C-40.61 10.83 -40.61 10 -40.62 9.15 C-40.6 6.85 -40.6 6.85 -40.23 3.21 C-36.74 0.88 -35.33 0.7 -31.23 1.21 C-27.62 3.84 -26.94 5.93 -26.23 10.21 C-25.33 9.65 -24.44 9.1 -23.52 8.53 C-15.67 3.78 -9.22 0.86 0 0 Z " fill="#3E3E45" transform="translate(2165.2265625,967.79296875)"/>
    <path d="M0 0 C10.4 7.45 17.03 18.64 19.25 31.25 C19.55 34.32 19.63 37.35 19.62 40.44 C19.62 41.27 19.62 42.09 19.62 42.95 C19.48 50.21 18.03 56.52 15.25 63.25 C14.97 63.98 14.7 64.71 14.41 65.47 C10.15 75.35 1.77 82.85 -7.88 87.21 C-17.66 90.82 -30.75 90.87 -40.55 87.28 C-52.08 81.87 -60.02 73.02 -64.75 61.25 C-64.91 60.85 -64.91 60.85 -65.72 58.84 C-70.46 44.64 -68.53 29.2 -62.65 15.74 C-58.09 6.63 -50.93 0.45 -41.75 -3.75 C-41.1 -4.07 -40.45 -4.39 -39.78 -4.72 C-26.69 -10.17 -11.65 -7.15 0 0 Z M-46.14 15.12 C-53.52 24.9 -54.83 36.37 -53.75 48.25 C-51.78 58.61 -48 66.43 -39.38 72.62 C-32.01 77.14 -25.21 78.19 -16.75 76.25 C-7.64 73.09 -1.8 67.48 2.62 59 C7.13 49.51 6.94 35.71 3.5 25.94 C-0.24 17.49 -5.11 11.74 -13.25 7.38 C-25.65 3.33 -37.35 5.8 -46.14 15.12 Z " fill="#3E3E45" transform="translate(2350.75,974.75)"/>
    <path d="M0 0 C8.69 7.05 15.16 19.39 16.79 30.46 C18.16 46.94 15.55 60.76 5.41 74.09 C-1.79 82.13 -12.79 86.46 -23.37 87.25 C-36.03 87.66 -46.33 85.34 -56 77 C-56.49 76.67 -56.49 76.67 -59 75 C-59.01 75.72 -59.02 76.44 -59.03 77.18 C-59.13 83.97 -59.23 90.75 -59.34 97.53 C-59.39 101.02 -59.45 104.51 -59.5 107.99 C-59.55 112 -59.62 116.01 -59.68 120.02 C-59.69 120.65 -59.69 120.65 -59.73 123.82 C-59.75 124.98 -59.77 126.14 -59.79 127.34 C-59.81 128.36 -59.83 129.38 -59.84 130.44 C-60 133 -60 133 -61 136 C-64.13 137.56 -67.58 137.4 -71 137 C-71.99 136.34 -72.98 135.68 -74 135 C-74.43 132.59 -74.43 132.59 -74.51 129.51 C-74.54 128.35 -74.57 127.19 -74.61 126 C-74.63 124.72 -74.65 123.45 -74.68 122.13 C-74.71 120.79 -74.74 119.44 -74.78 118.1 C-74.88 113.73 -74.94 109.37 -75 105 C-75.01 104.27 -75.02 103.54 -75.03 102.79 C-75.15 93.02 -75.19 83.26 -75.19 73.49 C-75.19 69.6 -75.2 65.7 -75.22 61.81 C-75.23 58.75 -75.23 55.69 -75.23 52.62 C-75.23 51.19 -75.23 49.75 -75.24 48.32 C-75.32 31.7 -73.81 16.56 -62 4 C-44.38 -12.57 -19.77 -12.28 0 0 Z M-51.76 12.63 C-59.57 21.08 -61.5 30.86 -61.28 42.04 C-60.56 52.31 -56.64 60.67 -49.19 67.71 C-42.36 73.34 -34.38 75.68 -25.57 75.34 C-16.97 74.2 -9.6 70.68 -4 64 C3.2 52.9 4.09 42.98 3 30 C2.14 26.3 0.91 23.27 -1 20 C-1.29 19.47 -1.29 19.47 -2.75 16.81 C-9.04 8.95 -15.73 4.33 -25.88 3.19 C-36.49 2.58 -43.92 5.36 -51.76 12.63 Z " fill="#3E3E45" transform="translate(2599,977)"/>
    <path d="M0 0 C6 6 2.38 31.91 2.48 39.98 C2.52 43.1 2.57 46.23 2.62 49.36 C2.63 50.31 2.64 51.26 2.65 52.24 C2.8 60.77 4.18 67.83 9 75 C13.35 79.13 17.35 81.06 23.31 81.44 C28.53 81.3 32.15 79.47 36 76 C40.64 70.12 41.11 64.09 41.21 56.84 C41.24 55.45 41.27 54.07 41.3 52.69 C41.34 50.52 41.38 48.36 41.4 46.2 C41.43 44.1 41.47 42 41.52 39.9 C41.54 38.65 41.56 37.4 41.58 36.11 C42 33 42 33 43.31 31.09 C46.18 29.24 48.71 29.65 52 30 C53.69 31.07 53.69 31.07 55 33 C55.38 36.24 55.38 36.24 55.41 40.23 C55.42 40.94 55.43 41.65 55.44 42.38 C55.47 44.65 55.49 46.92 55.5 49.19 C55.6 69.89 55.6 69.89 61.38 76.88 C66.19 80.77 70.33 81.52 76.44 81.38 C82.3 80.52 86.39 77.14 89.88 72.5 C95.62 63.54 95.14 53.82 95.21 43.51 C95.24 41.09 95.27 38.67 95.3 36.25 C95.34 32.45 95.38 28.65 95.4 24.86 C95.43 21.18 95.47 17.5 95.52 13.82 C95.53 12.68 95.53 11.54 95.53 10.37 C95.54 9.84 95.54 9.84 95.58 7.17 C95.59 6.24 95.6 5.31 95.61 4.36 C96.07 1.55 96.72 0.66 99 -1 C101.94 -1.44 101.94 -1.44 105 -1 C107.6 1.04 108.85 2.24 109.51 5.51 C109.51 6.45 109.51 7.39 109.52 8.36 C109.53 9.43 109.54 10.5 109.56 11.61 C109.55 12.76 109.54 13.92 109.53 15.11 C109.53 15.71 109.53 15.71 109.54 18.75 C109.55 21.3 109.54 23.85 109.52 26.4 C109.5 30.26 109.52 34.11 109.55 37.97 C109.59 72 109.59 72 97.08 84.99 C89.14 92.4 80.85 94.4 70.13 94.27 C61.26 93.5 55.17 89.13 49 83 C46.11 84.31 44.04 85.75 41.75 87.94 C35.19 93.6 28.89 94.59 20.31 94.34 C10.78 93.36 3.09 89.44 -3 82 C-10.28 70.19 -12.31 59.7 -12.27 45.98 C-12.27 44.75 -12.27 43.53 -12.27 42.27 C-12.27 39.7 -12.27 37.13 -12.26 34.56 C-12.25 30.62 -12.26 26.67 -12.27 22.73 C-12.27 20.23 -12.27 17.73 -12.27 15.23 C-12.27 14.05 -12.27 12.86 -12.28 11.65 C-12.27 10.56 -12.27 9.46 -12.26 8.34 C-12.26 7.38 -12.26 6.42 -12.25 5.43 C-12 3 -12 3 -10 0 C-6.29 -1.24 -3.81 -0.71 0 0 Z " fill="#3E3E45" transform="translate(1509,970)"/>
    <path d="M0 0 C0.99 0.66 1.98 1.32 3 2 C3.37 4.37 3.37 4.37 3.37 7.38 C3.38 8.5 3.38 9.63 3.39 10.79 C3.38 12.01 3.38 13.24 3.37 14.5 C3.39 17.08 3.41 19.67 3.42 22.26 C3.44 26.34 3.44 30.42 3.44 34.5 C3.44 38.44 3.47 42.37 3.5 46.31 C3.49 47.51 3.48 48.72 3.47 49.96 C3.56 59.88 5.52 69.19 12 77 C17.48 81.13 22.12 82.88 29 82 C34.24 80.26 38.1 77.8 41 73 C42.7 68.01 43.3 63.4 43.34 58.17 C43.36 57.45 43.37 56.73 43.39 55.99 C43.45 52.95 43.49 49.91 43.53 46.87 C43.57 44.63 43.61 42.4 43.66 40.17 C43.66 39.48 43.67 38.79 43.67 38.08 C43.77 33.23 43.77 33.23 46 31 C48.09 30.7 48.09 30.7 50.5 30.69 C51.29 30.67 52.09 30.65 52.91 30.64 C53.6 30.76 54.29 30.88 55 31 C57.41 34.61 57.3 37.28 57.31 41.45 C57.33 42.95 57.36 44.46 57.38 45.96 C57.41 48.32 57.44 50.68 57.46 53.03 C57.48 55.32 57.52 57.6 57.56 59.89 C57.56 60.23 57.56 60.23 57.56 61.99 C57.67 67.52 58.57 73.37 62.45 77.57 C67.66 81.99 71.21 82.42 77.89 82.33 C82.62 81.83 85.7 80.43 89 77 C95.35 67.39 96.29 58.19 96.31 46.95 C96.33 44.39 96.36 41.83 96.38 39.27 C96.41 35.24 96.44 31.22 96.46 27.19 C96.48 23.3 96.52 19.41 96.56 15.52 C96.56 14.31 96.56 13.1 96.56 11.85 C96.57 10.73 96.59 9.61 96.6 8.46 C96.6 7.48 96.61 6.49 96.61 5.48 C97 3 97 3 98.31 1.18 C101.11 -0.78 103.7 -0.29 107 0 C107.99 0.66 108.98 1.32 110 2 C110.38 4.4 110.38 4.4 110.39 7.45 C110.4 8.59 110.41 9.74 110.42 10.91 C110.41 12.16 110.4 13.4 110.4 14.68 C110.4 15.96 110.4 17.24 110.41 18.55 C110.41 21.27 110.41 23.98 110.39 26.7 C110.37 30.15 110.38 33.59 110.4 37.04 C110.42 40.36 110.41 43.67 110.4 46.99 C110.4 48.21 110.41 49.44 110.42 50.7 C110.31 64.55 107.21 76.93 97.81 87.43 C90.37 93.89 81.91 95.36 72.4 95.29 C65.35 94.69 59.1 91.94 54 87 C53 85.67 52 84.33 51 83 C50.34 83 49.68 83 49 83 C48.34 83.89 47.68 84.77 47 85.69 C42.97 90.76 36.31 93.81 30 95 C20.22 95.8 11.76 94.28 4 88 C-5.74 78.56 -9.95 68.26 -10.27 54.7 C-10.29 52.31 -10.3 49.93 -10.3 47.54 C-10.31 46.27 -10.31 45 -10.31 43.7 C-10.32 41.03 -10.32 38.37 -10.32 35.71 C-10.31 32.29 -10.33 28.88 -10.35 25.47 C-10.37 22.2 -10.36 18.93 -10.36 15.66 C-10.37 14.44 -10.38 13.21 -10.39 11.95 C-10.38 10.82 -10.38 9.69 -10.37 8.52 C-10.37 7.53 -10.37 6.53 -10.37 5.5 C-10 3 -10 3 -8.7 1.17 C-5.88 -0.77 -3.3 -0.29 0 0 Z " fill="#3E3E45" transform="translate(1642,969)"/>
    <path d="M0 0 C1.7 1.2 1.7 1.2 3 3 C3.38 5.28 3.38 5.28 3.38 7.98 C3.39 9 3.4 10.02 3.42 11.06 C3.41 12.16 3.41 13.26 3.41 14.39 C3.42 15.53 3.43 16.67 3.44 17.85 C3.47 21.5 3.49 25.16 3.5 28.81 C3.62 69.31 3.62 69.31 13 79 C18.34 82.39 23.83 82.87 30 82 C34.29 80.63 37.09 78.3 39.38 74.44 C41.69 69.55 42.17 65.69 42.25 60.38 C42.28 58.85 42.31 57.32 42.35 55.8 C42.39 53.39 42.44 50.99 42.48 48.59 C42.52 46.27 42.57 43.95 42.62 41.62 C42.63 40.91 42.64 40.19 42.65 39.45 C42.74 35.77 42.91 34.14 45 31 C47.09 30.64 47.09 30.64 49.5 30.69 C49.9 30.69 49.9 30.69 51.91 30.7 C54 31 54 31 56 33 C56.29 36.04 56.29 36.04 56.34 39.91 C56.36 40.6 56.37 41.29 56.39 42 C56.43 44.21 56.47 46.42 56.5 48.62 C56.83 71.62 56.83 71.62 63.44 78.59 C67.37 82.13 71.55 82.45 76.66 82.31 C82.16 81.58 86.4 79.19 89.81 74.81 C99.13 60.01 96.08 39.91 95.9 23.22 C95.87 20.12 95.86 17.03 95.84 13.93 C95.83 13.46 95.83 13.46 95.8 11.05 C95.8 10.16 95.79 9.28 95.79 8.37 C95.78 7.6 95.77 6.82 95.77 6.03 C96 4 96 4 98 1 C101.78 0 104.06 -0.41 107.69 1.16 C110 3 110 3 110.63 5.39 C110.63 6.33 110.63 7.27 110.63 8.24 C110.64 8.78 110.64 8.78 110.67 11.49 C110.66 12.66 110.64 13.82 110.63 15.02 C110.63 16.22 110.63 17.42 110.64 18.66 C110.64 21.22 110.62 23.77 110.6 26.33 C110.56 30.19 110.58 34.06 110.6 37.92 C110.59 55.48 110.39 72.56 97.93 86.28 C91.01 92.93 84.95 95.09 75.44 95.38 C67.36 95.17 61.47 93 55 88 C52.62 85.25 52.62 85.25 51 83 C48 84 48 84 46.44 86.25 C41.68 91.61 34.47 94.6 27.37 95.24 C18.11 95.47 10.24 93.81 2.75 88.12 C-7.52 78.3 -10.1 64.16 -10.43 50.58 C-10.45 49.45 -10.47 48.31 -10.48 47.13 C-10.51 45.94 -10.53 44.74 -10.56 43.51 C-10.61 40.99 -10.65 38.48 -10.69 35.97 C-10.75 32.12 -10.83 28.26 -10.92 24.41 C-10.96 21.97 -11.01 19.52 -11.05 17.07 C-11.07 15.92 -11.1 14.77 -11.13 13.58 C-11.14 12.51 -11.15 11.45 -11.17 10.34 C-11.18 9.41 -11.2 8.47 -11.22 7.5 C-10.99 4.83 -10.45 3.24 -9 1 C-5.95 -0.52 -3.36 -0.24 0 0 Z " fill="#3E3E45" transform="translate(1776,969)"/>
    <path d="M0 0 C3.51 2.59 4.78 4.24 6 8.44 C6 13.36 4.58 16.24 1.31 19.88 C-2.1 21.54 -5.33 21.67 -9 21 C-12.44 18.88 -13.72 17.85 -15 14 C-15.4 10.94 -15.49 8.06 -15 5 C-10.58 -0.73 -6.95 -1.68 0 0 Z " fill="#3E3E45" transform="translate(1917,1043)"/>
    <path d="M0 0 C3 1.8 4.59 3.31 6.38 6.31 C7.48 11.05 6.79 14.63 4.38 18.81 C1.28 21.66 -0.84 22.44 -5 23 C-9.29 21.86 -11.34 20.88 -14 17.31 C-15.25 13.16 -15.59 10.09 -14 6 C-10.25 1.02 -6.32 -1.17 0 0 Z " fill="#3E3E45" transform="translate(2502,1042)"/>
  </g>
</svg>