<?xml version="1.0" encoding="utf-8"?>
<!-- Generator: Adobe Illustrator 24.1.0, SVG Export Plug-In . SVG Version: 6.00 Build 0)  -->
<svg version="1.1" id="Layer_1" xmlns="http://www.w3.org/2000/svg" xmlns:xlink="http://www.w3.org/1999/xlink" x="0px" y="0px"
	 width="500.283px" height="173.005px" viewBox="0 0 500.283 173.005" style="enable-background:new 0 0 500.283 173.005;"
	 xml:space="preserve">
<style type="text/css">
	.st0{fill:#008EAA;}
</style>
<path id="Caminho_1" d="M353.594,48.101h33.102l-14.741,93.32h-33.134L353.594,48.101z M500.279,91.461
	c0,30.658-22.538,53.738-56.207,53.738c-29.334,0-48.262-18.354-48.262-45.984c0-31.792,23.083-54.326,55.266-54.326
	c30.091,0.004,49.206,18.551,49.206,46.575L500.279,91.461z M468.864,90.496c0-11.73-7.184-18.731-18.347-18.731
	c-12.871,0-23.101,12.107-23.101,27.82c0,11.561,7.191,18.756,17.96,18.756c13.84-0.007,23.492-11.744,23.492-27.837L468.864,90.496
	z M262.778,91.458L262.778,91.458v0.028c0,30.637-22.538,53.752-56.2,53.752c-7.973,0.12-15.879-1.466-23.189-4.652l-5.413,32.419
	h-32.563l13.473-82.375c0.053-0.461,0.141-0.901,0.225-1.363v-0.035c0.123-0.792,0.275-1.595,0.423-2.37
	c0.021-0.088,0.049-0.18,0.06-0.254c0.144-0.729,0.306-1.444,0.493-2.141c0.028-0.148,0.074-0.289,0.113-0.437
	c0.173-0.655,0.352-1.314,0.539-1.962c0.055-0.184,0.12-0.365,0.194-0.542c0.236-0.817,0.507-1.623,0.799-2.412
	c0.201-0.563,0.405-1.127,0.623-1.687c0.099-0.236,0.201-0.458,0.299-0.704c0.232-0.563,0.479-1.137,0.725-1.673
	c0.099-0.215,0.201-0.419,0.303-0.634c0.275-0.57,0.567-1.134,0.856-1.68c0.092-0.201,0.19-0.352,0.285-0.556
	c0.306-0.585,0.634-1.152,0.968-1.726c0.092-0.141,0.173-0.285,0.264-0.44c0.352-0.606,0.74-1.201,1.123-1.789
	c0.077-0.092,0.13-0.194,0.204-0.285c0.447-0.662,0.894-1.314,1.37-1.944l0.039-0.07c10.682-13.798,27.335-21.634,44.776-21.069
	c30.112,0.035,49.22,18.58,49.22,46.604L262.778,91.458z M231.345,90.535c0-11.73-7.187-18.724-18.344-18.724
	c-8.132,0.196-15.501,4.84-19.185,12.093c-2.602,4.81-3.935,10.203-3.874,15.671c0,11.561,7.184,18.756,17.96,18.756
	c8.281,0.047,15.886-4.562,19.678-11.924c2.568-4.889,3.863-10.346,3.768-15.868L231.345,90.535z M278.748,83.365l-9.195,57.95
	h32.239L309.868,91c1.587-10.367,10.594-17.964,21.08-17.78l4.43-28.024c-25.344-3.205-52.164,10.952-56.626,38.173L278.748,83.365z
	 M377.04,0.001c-10.445-0.092-18.699,10.103-18.829,23.21c-0.07,8.906,4.913,14.266,13.325,14.336
	c11.174,0.106,19.072-9.441,19.21-23.221c0.067-9.012-4.92-14.241-13.702-14.322L377.04,0.001z"/>
<g id="Grupo_1" transform="translate(0 10.195)">
	<path id="Caminho_2" class="st0" d="M62.123,87.788h62.031c-0.002-34.255-27.773-62.023-62.028-62.021c-0.001,0-0.002,0-0.003,0
		c0,0-62.123-0.12-62.123,0c-0.023,34.23,27.706,61.997,61.936,62.021C61.998,87.788,62.061,87.788,62.123,87.788"/>
	<path id="Caminho_3" class="st0" d="M124.661,98.236c0.023,34.23-27.706,61.997-61.936,62.021c-0.063,0-0.127,0-0.19,0H0.504
		c0-34.253,27.768-62.021,62.021-62.021c0.004,0,0.007,0,0.011,0C62.535,98.236,124.661,98.116,124.661,98.236"/>
</g>
</svg>
